<svg width="675" height="663" xmlns="http://www.w3.org/2000/svg" xmlns:xlink="http://www.w3.org/1999/xlink" xml:space="preserve" overflow="hidden"><defs><clipPath id="clip0"><rect x="302" y="28" width="675" height="663"/></clipPath></defs><g clip-path="url(#clip0)" transform="translate(-302 -28)"><path d="M315.799 179.943C325.338 179.043 334.94 179.043 344.478 179.943L351.113 161.499 351.113 161.499C366.582 163.405 381.717 167.415 396.099 173.42L396.099 173.42 392.5 192.764C401.234 196.742 409.558 201.563 417.355 207.159L432.312 194.338 432.312 194.338C444.351 203.49 455.128 214.193 464.365 226.166L464.365 226.166 451.769 226.166 451.769 226.166C446.185 219.587 440.093 213.458 433.55 207.834L418.704 220.542 418.704 220.542C407.264 211.077 394.396 203.485 380.579 198.049L380.579 198.049 384.178 178.931C376.05 176.013 367.701 173.757 359.211 172.183L352.463 191.189 352.463 191.189C345.027 189.987 337.502 189.423 329.97 189.502 322.438 189.414 314.912 189.979 307.477 191.189L307.477 191.189 300.954 172.857C292.468 174.445 284.118 176.703 275.987 179.605L279.586 198.724 279.586 198.724C265.769 204.16 252.901 211.752 241.461 221.217L241.461 221.217 226.728 208.509C220.122 214.103 213.99 220.234 208.396 226.84L208.396 226.84 195.238 226.84 195.238 226.84C204.475 214.867 215.252 204.165 227.29 195.013L227.29 195.013 242.248 207.834C250.045 202.238 258.369 197.416 267.103 193.438L263.504 174.095 263.504 174.095C277.89 168.104 293.023 164.093 308.489 162.173L308.489 162.173Z" fill="#D9D9D9" fill-rule="evenodd" transform="matrix(1 0 0 1.00049 302 29.1996)"/><path d="M330.195 199.062C359.373 199.036 387.719 208.775 410.719 226.728L402.397 226.728C358.985 196.445 301.293 196.445 257.88 226.728L249.671 226.728C272.658 208.752 301.014 199.01 330.195 199.062" fill="#D9D9D9" fill-rule="evenodd" transform="matrix(1 0 0 1.00049 302 29.1996)"/><path d="M469.651 448.957C469.761 450.695 469.986 452.423 470.325 454.13 464.876 455.637 459.684 457.95 454.918 460.991 462.262 450.649 465.434 437.918 463.802 425.34 451.319 442.997 433.887 456.605 435.574 475.949 435.461 477.672 435.461 479.399 435.574 481.122 429.202 483.02 423.248 486.112 418.029 490.231 417.017 491.019 415.668 492.706 415.443 492.368 415.218 492.031 416.68 490.456 417.58 489.332 424.094 479.695 429.347 469.263 433.212 458.292 406.558 478.76 399.473 477.973 385.64 495.63 377.37 500.882 368.035 504.224 358.311 505.414 356.961 505.414 356.961 507.551 358.311 507.439 365.863 506.877 373.455 507.523 380.804 509.35 404.084 518.235 422.191 513.624 446.483 500.691 433.571 501.958 420.535 500.853 408.02 497.429 410.157 496.754 412.181 494.843 414.431 495.405 442.209 501.703 461.441 491.356 480.447 471.45 463.915 475.611 451.206 477.186 438.385 480.335L438.385 480.335C439.173 477.86 442.997 476.061 442.997 475.949 462.003 467.739 482.809 475.049 502.49 443.221 493.017 448.251 482.805 451.744 472.237 453.568 472.07 451.684 472.379 449.789 473.137 448.057 487.645 433.999 505.977 440.072 523.971 400.373 514.089 403.303 505.009 408.458 497.429 415.443 498.171 412.992 499.151 410.619 500.353 408.358 515.986 394.524 531.281 384.178 534.093 362.022 528.089 367.315 521.483 371.882 514.411 375.63 527.966 358.373 534.871 336.821 533.868 314.9 529.482 335.143 517.11 337.393 509.913 352.8 506.739 343.192 501.607 334.346 494.843 326.821 492.931 361.46 506.089 360.56 507.439 385.077L502.378 389.014C502.076 376.838 498.545 364.961 492.143 354.6 491.356 372.819 484.383 394.412 495.18 409.82 495.878 412.113 496.071 414.531 495.742 416.905 492.528 419.676 488.655 421.573 484.496 422.416 486.882 411.178 486.104 399.498 482.247 388.676 479.435 408.133 466.164 423.653 469.201 448.395M497.317 266.428C508.32 278.095 514.158 293.703 513.512 309.726 518.572 305.79 520.484 289.145 529.257 282.96 531.049 303.657 523.208 324.026 508.001 338.18 506.989 323.11 495.18 332.557 491.918 295.668 497.879 299.042 498.104 308.377 507.214 313.438 499.368 299.293 496.07 283.076 497.767 266.99Z" fill="#D9D9D9" fill-rule="evenodd" transform="matrix(1 0 0 1.00049 302 29.1996)"/><path d="M191.189 448.957C191.189 450.981 191.189 453.006 190.627 454.13 196.048 455.617 201.206 457.931 205.922 460.991 198.578 450.649 195.405 437.918 197.037 425.34 209.633 442.997 226.953 456.605 225.266 475.949 225.378 477.672 225.378 479.399 225.266 481.122 231.648 482.994 237.607 486.088 242.81 490.231 243.935 491.019 245.284 492.706 245.509 492.368 245.734 492.031 244.272 490.456 243.373 489.332 236.772 479.745 231.513 469.302 227.74 458.292 254.282 478.76 261.479 477.973 275.2 495.63 283.469 500.882 292.805 504.224 302.529 505.414 303.878 505.414 303.878 507.551 302.529 507.439 294.977 506.891 287.387 507.536 280.036 509.35 256.868 518.235 238.649 513.624 214.469 500.691 227.344 501.951 240.342 500.846 252.82 497.429 250.683 496.754 248.658 494.843 246.522 495.405 218.743 501.703 199.399 491.356 180.393 471.45 196.925 475.611 209.746 477.186 222.454 480.335L222.454 480.335C221.667 477.86 217.731 476.061 217.731 475.949 198.837 467.739 177.918 475.049 158.35 443.221 167.788 448.241 177.96 451.733 188.49 453.568 188.713 451.683 188.401 449.774 187.59 448.057 173.082 433.999 154.751 440.072 136.869 400.373 146.711 403.318 155.751 408.473 163.298 415.443 162.604 412.974 161.622 410.597 160.374 408.358 144.741 394.524 129.559 384.178 126.635 362.022 132.603 367.307 139.171 371.874 146.203 375.63 132.573 358.396 125.553 336.856 126.41 314.9 130.796 335.143 143.167 337.393 150.365 352.8 153.542 343.194 158.672 334.348 165.435 326.821 167.234 361.46 154.188 360.56 152.839 385.077L157.787 389.014C158.089 376.838 161.62 364.961 168.022 354.6 168.809 372.819 175.782 394.412 164.985 409.82 164.404 412.145 164.404 414.579 164.985 416.905 168.207 419.664 172.077 421.56 176.231 422.416 173.96 411.17 174.736 399.521 178.481 388.676 181.292 408.133 194.563 423.653 191.527 448.395M163.41 266.428C151.94 278.094 145.726 293.935 146.203 310.289 141.143 306.353 139.343 289.708 130.571 283.522 128.75 304.201 136.547 324.567 151.714 338.742 152.726 323.672 164.535 333.119 167.797 296.231 161.836 299.605 161.724 308.939 152.614 314 160.73 299.744 164.19 283.309 162.511 266.99Z" fill="#D9D9D9" fill-rule="evenodd" transform="matrix(1 0 0 1.00049 302 29.1996)"/><path d="M421.853 349.876 238.424 349.876 229.877 335.143 430.401 335.143ZM353.587 468.076 362.135 453.343 298.143 453.343 306.69 468.076ZM342.341 487.87 350.888 473.024 309.501 473.024 318.049 487.87ZM218.63 315.462 441.759 315.462 433.212 330.195 227.065 330.195ZM176.006 241.573 484.496 241.573 450.757 300.617 209.971 300.617ZM338.742 389.351 330.195 374.506 330.195 374.506 321.648 389.351ZM321.535 413.981 330.082 428.714 330.082 428.714 338.63 413.981ZM314.9 401.722 319.173 409.032 341.666 409.032 345.827 401.722 341.554 394.187 319.061 394.187ZM361.91 428.714 352.013 411.507 342.116 428.714ZM369.332 441.647 364.721 433.662 338.855 433.662 330.307 448.395 365.059 448.395ZM364.721 413.981 373.269 428.714 376.868 428.714 385.415 413.981ZM381.928 389.351 373.494 374.506 373.494 374.506 364.946 389.351ZM390.363 404.871 384.403 394.524 361.91 394.524 357.636 402.06 361.797 409.37 388.114 409.37ZM384.403 374.843 392.95 389.689 399.135 389.689 407.683 374.843ZM373.156 355.162 381.591 369.895 410.494 369.895 419.042 355.162ZM341.666 374.843 351.676 392.163 361.685 374.843ZM330.42 355.162 338.967 369.895 364.384 369.895 372.931 355.162ZM298.93 374.843 308.939 392.163 318.949 374.843ZM287.683 355.162 296.231 369.895 321.648 369.895 330.195 355.162ZM279.136 369.895 287.683 355.162 241.348 355.162 249.783 369.895ZM267.89 389.689 276.437 374.843 252.707 374.843 261.254 389.689 267.44 389.689ZM296.343 389.689 287.796 374.843 287.796 374.843 279.249 389.689ZM299.267 409.37 303.541 402.06 299.155 394.524 276.662 394.524 269.914 404.871 272.501 409.37ZM288.021 429.051 296.568 414.318 275.425 414.318 283.972 429.051ZM319.286 429.051 309.277 411.844 299.38 429.051ZM330.532 448.732 321.985 433.999 296.006 433.999 291.395 441.984 295.331 448.732ZM510.475 227.065 330.532 538.591 150.59 227.065ZM330.532 509.125 339.754 493.043 320.973 493.043Z" fill="#D9D9D9" fill-rule="evenodd" transform="matrix(1 0 0 1.00049 302 29.1996)"/><path d="M330.195 19.6812C158.703 19.8676 19.8325 159.04 20.0189 330.532 20.2052 502.024 159.378 640.894 330.87 640.709 502.23 640.522 641.046 501.556 641.046 330.195 641.046 158.703 502.024 19.6811 330.532 19.681 330.42 19.681 330.307 19.6811 330.195 19.6812M330.195 0C512.557-7.99107e-14 660.39 147.833 660.39 330.195 660.39 512.557 512.557 660.39 330.195 660.39 147.833 660.39 6.86428e-06 512.557 6.86428e-06 330.195-0.062116 147.895 147.67 0.0621297 329.97 6.86428e-06 330.045-1.869e-05 330.12-1.869e-05 330.195 6.86428e-06Z" fill="#D9D9D9" fill-rule="evenodd" transform="matrix(1 0 0 1.00049 302 29.1996)"/><path d="M393.625 95.0323C392.561 97.8547 391.696 100.748 391.038 103.692 391.038 104.817 398.123 103.017 398.798 102.905L398.798 102.905 402.847 102.118 406.108 100.993 406.783 100.993 407.345 100.993C407.345 100.993 407.345 100.993 407.345 100.993L407.345 99.1934C407.345 99.1934 407.345 99.1934 407.345 99.1934 407.345 99.1934 407.345 99.1934 407.345 99.1934L407.345 99.1934 407.345 99.1934C407.754 99.4024 408.102 99.7121 408.358 100.093 408.84 100.533 409.222 101.069 409.482 101.668 409.758 102.363 409.984 103.077 410.157 103.804L410.157 103.804 410.157 103.804C410.219 104.215 410.219 104.632 410.157 105.042 410.157 105.042 410.157 105.716 410.157 105.829L410.157 105.829C410.157 105.829 410.157 105.829 409.37 105.829 408.582 105.829 407.458 106.841 407.008 106.841 406.558 106.841 404.196 106.841 401.61 107.628 399.023 108.416 394.187 108.978 392.163 109.315L391.038 109.315C391.038 109.315 389.239 109.315 389.351 109.99 389.594 111.824 390.125 113.608 390.926 115.276 391.39 116.903 391.766 118.555 392.05 120.224L393.85 125.173C393.85 126.297 394.974 127.759 395.424 128.884 395.81 129.688 396.148 130.514 396.436 131.358 397.301 133.153 398.356 134.85 399.585 136.419L401.16 138.331C401.639 138.907 402.208 139.401 402.847 139.793 403.914 140.65 405.086 141.368 406.333 141.93 407.857 142.75 409.435 143.464 411.057 144.067L412.856 144.067C413.756 144.067 412.856 144.067 411.507 145.079 409.587 145.593 407.632 145.97 405.658 146.203 404.536 146.099 403.407 146.099 402.284 146.203 400.763 146.269 399.263 145.835 398.011 144.966 396.742 144.36 395.656 143.429 394.862 142.267 394.37 141.505 393.919 140.716 393.512 139.905 392.209 137.863 391.152 135.673 390.363 133.383 389.801 131.696 389.464 129.559 389.014 128.097 387.664 123.823 386.877 121.011 385.977 118.875 385.077 116.738 385.977 117.975 385.19 117.862 384.403 117.75 384.628 117.862 384.403 118.425 384.178 118.987 382.266 122.698 380.916 124.61 379.606 126.145 378.178 127.574 376.643 128.884 374.912 130.813 372.568 132.084 370.007 132.483 368.923 132.598 367.83 132.598 366.746 132.483 364.547 132.162 362.369 131.711 360.223 131.133 356.627 130.655 353.06 129.979 349.539 129.109 346.615 128.097 346.39 127.534 347.964 126.86 351.338 126.86 359.211 126.86 362.922 126.86 365.885 126.307 368.667 125.032 371.019 123.148 372.293 122.061 373.46 120.856 374.506 119.549 375.636 118.284 376.548 116.84 377.205 115.276 378.205 113.96 379.036 112.525 379.679 111.002L379.004 111.002 376.193 111.002C374.731 111.002 373.943 111.789 373.494 111.789L371.694 111.789C370.907 111.789 370.907 111.789 370.12 112.352L368.77 112.352C368.77 112.352 367.87 112.352 367.758 112.352 367.645 112.352 365.959 112.352 365.284 113.139 364.283 113.142 363.348 112.633 362.81 111.789L362.81 110.44C362.637 109.909 362.371 109.413 362.022 108.978 362.177 107.307 363.5 105.984 365.171 105.829L367.533 105.829C369.279 105.664 371.008 105.363 372.706 104.929 375.63 104.929 379.229 104.929 382.378 103.58L384.065 103.58C384.59 102.155 385.265 100.58 386.09 98.856 387.214 94.1325 391.488 82.9986 392.837 76.3632L393.625 70.2901 393.625 70.2901C393.625 69.278 392.613 67.8159 392.725 66.9162L392.725 66.9162C392.725 66.9162 392.725 66.9162 392.725 66.9162L392.725 66.9162C392.757 66.216 393.084 65.5621 393.625 65.1168L394.3 65.1168C396.165 65.5486 397.976 66.19 399.698 67.0287L399.698 67.0287 399.698 67.0287C399.698 67.0287 399.698 67.0287 399.698 67.0287 399.698 67.0287 400.373 67.0287 400.373 67.9284 400.759 68.1243 401.016 68.5082 401.047 68.9406L401.047 68.9406C401.047 68.9406 401.047 69.6153 401.047 70.2901 401.047 70.9649 400.26 73.2142 399.923 73.7765L399.923 73.7765C399.726 74.8291 399.304 75.8265 398.686 76.7006L398.686 77.8252 398.686 78.7249C396.669 84.0528 394.979 89.4987 393.625 95.0323Z" fill="#D9D9D9" fill-rule="evenodd" transform="matrix(1 0 0 1.00049 302 29.1996)"/><path d="M531.056 125.51C526.895 126.522 521.497 127.309 519.81 127.984 518.123 128.659 519.135 129.109 519.81 129.334 519.901 130.119 519.901 130.911 519.81 131.696 519.81 131.696 517.785 131.696 517.11 131.696 516.136 131.756 515.16 131.756 514.186 131.696 512.162 131.696 511.487 131.696 510.7 131.696 509.913 131.696 510.7 135.857 510.7 137.206 510.7 138.556 507.326 138.106 507.101 139.793 507.57 140.428 507.57 141.294 507.101 141.93 508.291 142.15 509.51 142.15 510.7 141.93 511.6 141.93 512.162 141.93 512.724 141.93L512.724 141.93C512.227 140.433 512.227 138.816 512.724 137.319 513.043 136.257 513.771 135.366 514.749 134.845 515.761 134.845 516.098 132.82 516.885 132.708 517.875 132.404 518.932 132.404 519.922 132.708 521.721 134.282 519.922 136.419 520.822 138.443 521.721 140.468 527.57 136.756 528.919 136.307L528.919 136.307C526.782 134.62 524.083 133.045 524.308 130.796 524.533 128.547 530.381 131.583 532.743 132.595 535.105 133.607 535.555 132.595 536.904 132.595 538.254 132.595 539.941 143.167 536.904 143.842 528.998 143.004 521.003 143.77 513.399 146.091L513.399 146.091C513.399 146.091 513.399 146.766 513.399 147.328 515.986 149.352 519.022 150.927 521.946 153.064 523.421 154.588 524.435 156.498 524.87 158.575 525.433 160.486 522.959 161.161 522.396 161.724 521.834 162.286 520.372 161.724 518.123 161.724 516.595 161.523 515.089 161.185 513.624 160.711 512.144 160.456 510.68 160.119 509.238 159.699 507.888 159.699 505.527 158.912 504.065 158.462 502.603 158.012 498.329 156.775 495.517 155.988L494.843 157.45C494.551 157.553 494.234 157.553 493.943 157.45L493.943 157.45 493.043 157.45 493.043 157.45 492.368 157.45 491.019 156.888C491.019 156.888 490.231 156.888 490.007 156.888L490.007 156.888 490.007 157.45 491.131 158.462 491.131 158.462C491.131 159.137 493.38 159.362 493.943 159.812L493.943 159.812 495.517 160.374C496.04 160.837 496.605 161.252 497.204 161.611 497.122 161.79 497.122 161.995 497.204 162.173L497.204 162.173 497.204 162.848 497.204 162.848C497.204 162.848 497.204 162.848 497.204 163.635L497.204 163.635C497.204 163.635 497.204 163.635 497.204 164.31L497.204 164.31 497.204 164.31 497.204 165.322 497.204 165.885 497.204 165.885 497.204 165.885 494.73 165.885 494.73 165.885 494.73 165.885C494.73 165.885 494.73 165.885 493.83 165.885L493.83 165.885 493.83 165.885C492.708 165.774 491.579 165.774 490.456 165.885L486.97 165.885C486.97 165.885 486.97 165.885 486.97 166.559 486.97 167.234 486.295 167.122 486.97 167.459 487.349 167.827 487.812 168.097 488.32 168.246L488.32 168.246C488.32 168.246 488.994 168.246 489.332 168.246L493.83 170.158 499.116 172.745 499.116 172.745C501.141 174.432 500.353 174.095 501.253 176.344L501.253 176.344C501.253 176.344 501.253 176.344 501.253 177.019L501.253 177.019 501.253 177.019C501.253 177.693 502.04 179.155 501.253 179.83 500.466 180.505 500.466 181.067 498.441 180.393 496.417 179.718 496.417 179.155 495.742 178.818 495.067 178.481 492.931 177.244 491.356 176.569 489.782 175.894 488.207 174.769 486.633 173.982 485.058 173.195 484.271 172.295 482.921 171.845L481.797 171.845C478.873 175.107 474.486 182.304 472.012 185.566 471.337 187.59 469.763 188.265 468.301 189.502L468.301 189.502 466.951 191.077 466.951 191.077 465.489 191.976 465.489 191.976C465.489 192.539 464.59 192.989 464.252 192.651L458.629 187.59 458.629 187.59 458.629 186.353 458.629 186.353 458.629 186.353C458.629 186.353 458.629 185.229 458.629 185.004L458.629 185.004C458.693 184.519 458.693 184.026 458.629 183.542L458.629 183.542 458.629 182.867C458.629 182.867 457.842 181.855 457.842 181.517 457.842 181.18 457.167 175.669 456.042 174.769 454.918 173.87 456.042 174.769 456.042 174.769L456.042 174.769 456.042 173.307 456.042 173.307 456.042 173.307 456.042 173.307C456.717 173.307 457.729 174.544 459.304 176.119 460.878 177.693 461.441 177.918 462.453 179.043 463.179 180.02 463.855 181.034 464.477 182.08 464.477 182.642 465.377 183.204 465.827 183.429L466.502 183.429 466.502 183.429C468.076 181.292 470.1 178.031 471.45 176.231 472.8 174.432 474.374 172.633 476.061 170.833 471.961 168.565 467.624 166.754 463.128 165.435L463.128 165.435C461.778 164.31 458.179 163.523 457.954 161.274L457.954 161.274C457.954 161.274 457.954 161.274 457.954 161.274L457.954 161.274C457.587 160.895 457.317 160.431 457.167 159.924L457.167 159.924C457.167 159.924 456.042 157.787 456.38 157.337L456.38 157.337 456.38 156.325 456.38 156.325 456.38 155.763C456.38 155.763 456.38 155.763 456.38 155.201L456.38 155.201C456.38 155.201 457.055 153.964 457.504 154.076 457.954 154.188 460.316 155.313 461.216 155.313 465.264 157.225 464.815 157.9 468.189 159.699 471.562 161.499 476.736 164.198 477.411 164.648L477.411 164.648C478.95 165.416 480.639 165.837 482.359 165.885 484.158 165.885 485.058 164.648 486.07 163.973L486.858 163.973C487.401 163.895 487.908 163.66 488.32 163.298L489.444 162.286C488.432 161.386 487.87 160.261 486.858 159.362L486.858 159.362 486.295 159.362 486.295 159.362C485.171 158.35 484.046 157.9 483.821 156.325L483.821 156.325 483.821 155.313C484.256 155.477 484.735 155.477 485.171 155.313 485.835 155.475 486.53 155.475 487.195 155.313 487.195 155.313 487.195 155.313 487.87 155.313L487.87 155.313 487.87 155.313C489.317 155.601 490.808 155.601 492.256 155.313L492.256 155.313 492.256 155.313 493.605 155.313 495.63 155.313 497.317 155.313C503.927 156.793 510.674 157.585 517.448 157.675L517.448 157.675 517.448 157.675C512.141 154.28 506.279 151.842 500.128 150.477L488.882 146.541C488.266 146.441 487.707 146.121 487.307 145.641L487.307 145.641 487.307 145.641 486.52 145.641 483.596 141.48 483.596 141.48 482.921 141.48 482.247 140.918 482.247 140.918 482.247 140.918 482.247 140.918 479.66 138.781 479.66 138.781 479.66 138.781 479.66 138.781C479.66 138.781 479.66 138.781 479.66 138.781L479.66 138.781 479.66 138.781 479.66 138.781 480.335 137.994C480.335 137.994 480.335 137.994 480.335 137.994 480.335 137.994 480.335 137.994 480.335 137.994L480.335 137.994 481.797 137.994 481.797 137.994 481.797 137.994 482.696 137.994 482.696 137.994 482.696 137.994 482.696 137.994 482.696 137.994 482.696 137.994 483.259 137.994 483.259 137.994 486.183 137.994 487.42 137.994C492.481 138.781 498.104 144.067 501.703 137.206 501.703 136.644 501.703 134.957 501.703 134.732L497.767 134.732C496.158 134.888 494.539 134.888 492.931 134.732 492.374 134.65 491.839 134.459 491.356 134.17L491.356 134.17C491.751 133.567 492.246 133.034 492.818 132.595 495.482 131.331 498.329 130.497 501.253 130.121 501.253 129.334 501.253 128.209 501.253 127.085 501.253 125.96 499.791 126.522 498.666 126.297 497.542 126.072 498.666 126.297 498.666 127.872 498.666 129.446 495.067 129.334 494.28 129.559 493.493 129.784 492.593 129.559 491.806 129.559 491.019 129.559 488.882 134.845 486.183 133.158 486.183 133.158 482.471 128.772 483.034 128.434 483.495 127.57 484.021 126.744 484.608 125.96 486.082 124.234 487.224 122.251 487.982 120.112 488.11 119.367 488.11 118.607 487.982 117.862 487.982 117.862 487.982 117.862 487.982 117.862 489.682 119.338 490.798 121.372 491.131 123.598 492.256 125.847 495.405 119.662 496.642 118.65 497.56 118.128 498.727 118.448 499.249 119.366 499.283 119.426 499.314 119.486 499.341 119.549 499.541 120.914 499.263 122.304 498.554 123.486 497.879 124.385 499.678 124.723 499.678 124.723L501.478 122.361C501.66 121.494 501.455 120.59 500.916 119.887 500.137 118.567 499.857 117.01 500.128 115.501 500.128 114.039 502.378 116.4 502.827 116.288 504.011 116.456 505.154 116.837 506.201 117.413 507.101 117.413 507.439 118.312 508.226 118.762 509.013 119.212 508.226 123.711 510.363 123.936 515.423 122.361 520.822 120.899 525.77 118.987L526.332 118.987C526.332 118.987 528.019 118.987 528.244 118.425L528.244 118.425 528.244 118.425C528.819 118.277 529.357 118.009 529.819 117.638L529.819 117.638 529.819 117.638C529.819 117.638 531.506 116.4 531.506 115.726 531.506 115.051 531.506 115.726 531.506 115.726 531.506 115.726 531.506 115.726 532.293 114.264L532.293 114.264 532.293 114.264 532.293 114.264C533.08 114.826 532.293 114.264 533.305 114.264L533.305 114.264 533.305 114.264 534.767 115.613 534.767 115.613C534.767 115.613 534.767 115.613 534.767 115.613 534.767 115.613 534.767 115.613 534.767 115.613L535.442 116.288 535.442 116.288 535.442 116.288 535.442 116.288 535.442 116.288 535.442 116.288 535.442 116.288 535.442 116.288 535.442 116.288 535.442 116.288 535.442 116.288C535.442 116.288 535.442 116.288 535.442 116.288 535.442 116.288 535.442 116.288 535.442 116.288 535.442 116.288 535.442 116.288 535.442 116.288 535.442 116.288 535.442 116.288 535.442 116.288 535.442 116.288 535.442 116.288 535.442 116.288L535.442 116.288 535.442 116.288 535.442 117.075C535.442 117.075 535.442 117.075 535.442 117.075L535.442 117.075 535.442 117.075 535.442 117.075 535.442 117.075 535.442 117.75 535.442 117.75 535.442 117.75C535.442 117.75 535.442 117.75 535.442 118.312 535.442 118.875 535.442 118.312 535.442 118.312 535.442 118.312 535.442 118.312 535.442 118.312L535.442 118.312 533.643 118.312 531.956 118.312C530.875 118.144 529.775 118.144 528.694 118.312L527.232 118.312ZM475.499 130.009C476.736 130.683 476.511 131.471 476.736 132.595 476.961 133.72 476.736 133.607 476.736 134.282 476.127 135.806 475.016 137.076 473.587 137.881 472.766 137.994 471.934 137.994 471.113 137.881L469.201 138.556C467.064 139.343 464.702 134.62 465.377 132.82 466.863 132.122 468.463 131.702 470.1 131.583 470.888 131.583 471.45 130.683 472.35 130.346Z" fill="#D9D9D9" fill-rule="evenodd" transform="matrix(1 0 0 1.00049 302 29.1996)"/><path d="M274.525 109.09 273.738 111.677C274.549 112.979 275.084 114.433 275.312 115.951 274.918 117.412 274.185 118.76 273.176 119.887 271.264 122.024 268.789 122.361 265.078 119.887 266.183 115.014 269.772 111.082 274.525 109.54M284.422 95.1447C285.434 93.3453 286.334 91.8833 287.121 90.3088 287.383 89.7768 287.383 89.1538 287.121 88.6218 286.589 88.3603 285.966 88.3603 285.434 88.6218 283.998 89.9011 282.914 91.5274 282.285 93.3453ZM287.908 116.963C289.603 116.555 291.206 115.829 292.632 114.826 293.485 114.22 294.437 113.763 295.443 113.476 297.642 113.069 299.754 114.521 300.161 116.72 300.319 117.564 300.202 118.437 299.83 119.212 298.93 121.349 298.143 123.486 297.355 125.623 296.568 127.759 296.793 127.197 296.456 128.209L299.155 129.109 301.741 129.784C304.216 130.458 304.778 131.021 304.89 132.708 304.769 134.713 303.497 136.467 301.629 137.206 299.728 137.92 297.587 137.484 296.118 136.082L293.307 133.72 287.683 140.468C285.856 142.417 282.94 142.88 280.598 141.592L280.598 141.592C277.674 139.568 277.787 138.781 280.598 136.981L286.671 132.82C287.402 132.163 288.079 131.449 288.696 130.683L287.571 128.097C287.571 126.522 287.571 125.847 289.145 125.847L292.407 125.847 293.644 121.124C292.633 120.41 291.281 120.41 290.27 121.124 289.708 121.124 289.145 121.799 288.696 121.124 286.334 121.124 285.659 122.361 284.534 123.823 281.259 128.355 278.4 133.173 275.987 138.219 274.863 140.355 273.513 142.267 272.276 144.292 271.801 144.935 271.232 145.504 270.589 145.979 270.051 146.662 269.061 146.779 268.378 146.242 268.28 146.165 268.191 146.076 268.115 145.979 267.132 144.993 266.264 143.899 265.528 142.717 264.968 141.623 264.968 140.325 265.528 139.231 266.521 136.529 268.139 134.101 270.251 132.145 274.067 128.718 277.196 124.596 279.474 119.999 279.952 118.58 280.515 117.19 281.161 115.838 280.712 115.1 280.224 114.387 279.698 113.701 279.287 113.204 278.911 112.678 278.574 112.127 277.821 111.061 278.076 109.588 279.141 108.835 279.472 108.602 279.858 108.457 280.261 108.416 281.423 108.355 282.585 108.355 283.747 108.416 285.983 108.051 287.767 106.355 288.246 104.142 288.246 103.242 288.246 102.567 287.571 102.23 286.896 101.893 286.446 102.23 285.884 102.23 284.361 104.721 281.108 105.505 278.617 103.982 278.321 103.801 278.042 103.591 277.787 103.355L279.361 99.5308C277.562 98.1813 277.449 98.1813 276.212 99.5308 274.975 100.88 274.413 100.993 273.063 100.206 273.118 99.3442 273.118 98.4803 273.063 97.6189 273.063 96.7192 273.063 95.8195 273.063 95.0323 273.063 94.245 271.376 95.0323 270.814 96.0444L269.914 97.6189C266.962 104.609 263.504 111.375 259.567 117.862 257.093 122.586 254.507 127.422 252.145 132.258 249.783 137.094 248.433 140.018 246.522 143.504 244.61 146.991 242.923 149.69 241.123 152.839 240.861 153.277 240.56 153.691 240.224 154.076 238.087 156.438 237.075 156.213 235.725 153.176 235.614 152.712 235.381 152.284 235.05 151.939 233.765 150.036 233.765 147.544 235.05 145.641 236.029 143.553 236.891 141.413 237.637 139.231 237.637 138.106 238.986 138.668 239.549 138.106 240.906 136.709 242.147 135.206 243.26 133.607 252.032 119.212 260.58 104.817 269.239 90.4212 269.76 89.5806 269.996 88.5949 269.914 87.6096 270.007 85.9882 270.948 84.5357 272.388 83.7858 273.282 83.2819 274.021 82.5429 274.525 81.649L279.698 73.7765C280.069 73.0569 280.37 72.3037 280.598 71.5272L276.774 73.1017 267.103 77.3754C266.246 77.7197 265.418 78.1335 264.628 78.6125 261.333 80.9437 257.04 81.3301 253.382 79.6247 251.506 79.1785 250.285 77.3703 250.57 75.4635 255.069 74.3388 259.567 73.4391 263.841 71.9771 268.36 70.6711 272.702 68.8206 276.774 66.4663L268.677 61.293C267.436 60.6059 266.631 59.3343 266.54 57.9191 266.54 56.682 267.215 56.1196 268.452 56.3446 271.332 56.9779 274.275 57.2797 277.224 57.2443 279.033 57.2717 280.806 57.7347 282.398 58.5939 284.759 59.606 285.097 60.9556 284.197 63.7672L286.334 63.0924C288.358 62.0802 290.27 60.9556 292.294 60.1684 294.319 59.3811 296.568 60.1684 297.468 62.1927 297.703 62.6213 297.892 63.0736 298.03 63.5423 298.93 65.3147 298.222 67.4807 296.45 68.3803 296.133 68.5411 295.793 68.6541 295.443 68.7156 293.082 69.3904 290.72 69.9527 288.358 70.74 287.493 70.9626 286.712 71.4314 286.109 72.0896 282.623 76.8131 279.249 81.649 275.762 86.485 275.762 86.485 275.762 86.485 275.762 87.3847 276.073 87.8545 276.41 88.3051 276.774 88.7343 278.012 89.9714 278.574 89.8589 279.474 88.7343 279.967 87.7573 280.531 86.8175 281.161 85.9227 283.981 83.0179 285.76 79.2611 286.221 75.2386 287.468 74.3554 289.136 74.3554 290.383 75.2386 290.945 75.2386 291.282 76.4757 291.282 77.038 291.282 77.6003 290.495 80.4119 290.045 82.0989 291.732 83.2235 291.957 83.336 293.307 82.0989 294.377 81.1226 295.288 79.984 296.006 78.7249 296.404 77.8734 297.335 77.4075 298.255 77.6003 300.105 77.7941 301.657 79.0802 302.191 80.8618 302.74 82.3873 302.126 84.0875 300.729 84.9105 299.454 85.9838 298.101 86.9613 296.681 87.8345 294.03 89.5321 291.83 91.8476 290.27 94.5824L290.27 95.4821C290.785 96.2586 291.832 96.4704 292.608 95.9554 292.796 95.8309 292.957 95.6699 293.082 95.4821 293.77 94.5327 294.521 93.6308 295.331 92.783 296.054 92.0314 296.938 91.4544 297.918 91.096 299.38 90.5337 300.392 91.096 300.954 92.783 301.315 93.6529 301.768 94.4822 302.304 95.2572 303.328 96.1611 303.427 97.7245 302.523 98.7494 302.454 98.8269 302.381 98.9001 302.304 98.9685 301.292 99.8682 300.167 100.543 299.155 101.33 298.143 102.118 297.468 102.905 298.143 104.929 298.833 106.25 298.324 107.881 297.002 108.572 296.863 108.645 296.718 108.705 296.568 108.753L291.732 111.34C289.591 112.213 288.115 114.21 287.908 116.513Z" fill="#D9D9D9" fill-rule="evenodd" transform="matrix(1 0 0 1.00049 302 29.1996)"/><path d="M168.696 162.961C168.42 161.096 168.42 159.202 168.696 157.337 168.611 156.252 168.611 155.161 168.696 154.076L168.696 154.076C168.956 153.003 169.144 151.913 169.259 150.814L169.259 150.814 169.259 150.814 169.259 151.377 170.496 153.401C170.496 154.188 171.733 154.863 170.496 156.438 169.259 158.012 170.496 157.225 169.821 158.35L169.034 160.037C169.034 160.599 169.034 161.274 168.246 161.948 167.963 162.471 167.623 162.962 167.234 163.41 167.234 163.41 167.234 163.41 167.234 163.41M182.529 145.979C182.529 147.666 182.529 148.34 182.529 149.69 182.529 151.039 181.855 152.052 181.63 152.501L181.63 152.501 180.393 153.401 178.031 150.027C178.031 150.027 178.031 149.465 178.593 148.79L178.593 148.79 179.83 145.754 180.618 144.517 180.618 144.517 180.618 143.504 181.292 143.504 182.08 143.504C182.713 144.22 183.389 144.896 184.104 145.529ZM182.529 159.362 184.891 161.836 184.891 161.836C185.749 163.201 186.501 164.63 187.14 166.11 187.387 166.593 187.689 167.045 188.04 167.459 188.04 167.459 188.94 167.459 189.952 167.459 190.471 167.347 191.008 167.347 191.527 167.459 191.949 167.239 192.453 167.239 192.876 167.459 193.471 167.873 193.969 168.411 194.338 169.034 194.338 169.933 194.338 170.946 194.338 171.508 194.338 172.07 194.338 173.195 194.338 173.195 194.28 174.281 194.28 175.37 194.338 176.456 194.425 177.429 194.425 178.408 194.338 179.38 195.013 179.38 195.35 179.38 195.8 179.38 196.74 178.269 197.5 177.016 198.049 175.669 198.318 174.432 199.15 173.392 200.299 172.857 200.974 172.295 203.448 172.857 204.797 173.87 205.976 174.809 206.389 176.415 205.809 177.806L201.873 182.867C200.861 184.216 199.736 186.128 198.837 187.478 197.893 188.462 197.199 189.657 196.812 190.964 196.812 192.539 193.776 193.776 192.989 193.663 192.201 193.551 187.59 192.314 187.028 190.739 186.466 189.165 185.903 187.14 185.791 186.691 185.657 184.519 185.28 182.367 184.666 180.28 183.991 178.818 183.429 177.918 183.092 177.019 182.754 176.119 183.092 176.231 182.192 176.119L180.28 176.119C179.605 176.119 178.818 176.794 178.143 176.681L176.344 176.681C176.344 176.681 175.782 176.119 176.344 175.332 176.906 174.544 176.344 174.32 176.344 174.095L176.906 173.42 176.906 173.42C177.653 172.72 178.484 172.115 179.38 171.62L179.38 171.62C179.24 171.201 179.009 170.817 178.706 170.496 178.076 169.966 177.475 169.403 176.906 168.809 175.697 167.048 174.679 165.163 173.87 163.186L172.633 161.499 172.633 161.499 172.07 161.499C172.07 162.286 172.07 163.41 170.946 163.973 169.821 164.535 170.046 165.322 170.271 165.772L170.271 166.559 170.271 166.559C170.271 166.559 170.271 166.559 170.271 167.572 170.271 168.584 168.246 173.982 168.022 173.645L168.022 173.645C167.309 174.208 166.45 174.559 165.547 174.657 165.547 174.657 164.648 174.657 164.31 174.657L163.748 174.657 163.748 174.657C161.833 173.22 160.878 170.833 161.274 168.471 161.337 167.761 161.337 167.045 161.274 166.335 161.274 166.335 161.274 165.66 161.274 164.535L161.274 164.535C161.44 163.87 161.44 163.175 161.274 162.511L161.274 162.511C161.497 161.893 161.497 161.216 161.274 160.599 161.274 160.599 161.274 160.599 161.274 160.599 161.274 160.599 161.274 158.687 161.274 158.35 161.274 158.012 161.274 156.888 161.274 156.213 161.274 155.538 161.274 154.413 161.274 154.076 161.274 153.739 161.274 150.59 161.274 150.252L161.274 150.252 161.274 149.24C161.274 149.24 161.274 147.103 161.274 147.103 161.274 147.103 161.274 144.741 161.274 144.741L161.274 143.954C161.274 143.954 161.274 143.954 161.274 143.279L161.274 142.605 160.599 142.605C160.599 142.605 160.037 143.842 159.699 144.067 159.335 145.177 158.762 146.207 158.012 147.103 157.877 148.066 157.531 148.988 157 149.802 157 149.802 155.313 152.726 155.538 153.176 155.256 154.005 154.879 154.797 154.413 155.538 153.852 156.337 153.504 157.265 153.401 158.237 153.401 158.237 153.401 159.024 153.401 159.137L153.401 159.137C153.401 159.137 152.501 160.599 152.726 160.824 152.951 161.049 152.726 161.611 152.726 161.724L152.726 161.724C152.341 162.566 152.002 163.43 151.714 164.31L151.714 164.31 151.714 164.985C151.485 165.943 151.183 166.883 150.814 167.797L150.814 167.797C150.72 168.506 150.72 169.224 150.814 169.933 150.814 169.933 150.814 170.721 150.814 170.833L150.814 170.833C150.814 172.633 148.79 175.444 148.565 176.794L148.565 176.794C147.564 178.324 146.109 179.504 144.404 180.168L146.203 179.943C145.4 180.107 144.611 180.333 143.842 180.618L139.006 181.967C139.006 181.967 137.431 181.967 137.206 181.967L137.206 179.718C137.206 179.718 137.206 176.906 137.881 176.569L137.881 176.569C138.232 175.687 138.532 174.785 138.781 173.87 138.781 173.87 139.793 172.52 139.681 172.408L139.681 172.408 139.681 172.408C140.918 171.283 150.927 154.638 150.927 154.638 150.927 154.638 152.726 150.59 154.076 149.69L154.076 149.69C154.076 149.69 156.438 146.203 156.325 146.203 156.213 146.203 158.687 142.717 158.687 142.605 158.687 142.492 160.261 140.805 160.149 140.693 160.037 140.58 161.161 138.331 161.948 137.769L161.948 137.769C161.948 137.206 161.948 136.532 162.848 136.194L162.848 136.194C163.056 135.888 163.056 135.488 162.848 135.182L162.848 135.182 160.149 131.133 161.161 128.547C161.161 128.547 164.423 122.811 164.648 122.698 164.873 122.586 165.322 122.698 165.547 122.024L166.222 122.024C166.222 122.024 166.222 122.024 166.784 122.586 167.347 123.148 166.784 123.373 167.459 123.486L167.459 123.486C167.459 123.486 169.146 126.297 169.371 126.747L169.371 126.072C170.046 126.072 173.757 122.474 173.532 122.136 173.307 121.799 174.657 121.349 176.231 121.124L177.244 121.686C179.493 122.923 177.244 125.173 177.244 125.51 177.244 125.847 177.244 127.197 176.681 127.422 176.861 128.502 176.861 129.604 176.681 130.683L176.681 130.683 174.882 134.057 174.882 134.057C174.754 135.163 174.528 136.254 174.207 137.319 174.519 139.368 175.085 141.371 175.894 143.279L176.681 144.741 177.918 142.267 177.918 142.267C178.931 141.592 178.818 139.006 179.83 138.331 180.842 137.656 182.529 135.857 182.417 135.857 184.554 135.07 187.815 134.62 189.277 136.756 189.277 136.756 190.289 138.556 189.277 139.006 188.265 139.456 189.277 139.568 189.277 140.018L189.277 144.966C189.277 144.966 189.277 145.866 189.277 145.866 189.155 146.95 189.155 148.043 189.277 149.128L189.277 150.14C189.22 151.077 189.22 152.014 189.277 152.951 189.277 153.851 189.277 154.413 188.378 155.201 187.851 155.971 187.248 156.687 186.578 157.337 185.88 158.093 184.983 158.639 183.991 158.912ZM151.039 90.8711C151.404 90.7424 151.8 90.7424 152.164 90.8711 152.761 90.9542 153.366 90.9542 153.964 90.8711 155.37 91.5971 156.725 92.424 158.012 93.3453 159.94 94.9408 161.382 97.0448 162.173 99.4184 162.739 101.822 162.739 104.325 162.173 106.729 162.173 106.729 161.274 109.09 160.711 111.452 160.149 113.814 159.587 117.638 158.687 121.349 158.687 123.148 157.337 125.285 157 126.972 156.663 128.659 156.213 130.683 155.875 132.145 155.538 133.607 154.863 135.07 154.751 135.632 153.996 138.524 152.901 141.318 151.489 143.954 151.489 143.954 151.489 138.106 151.489 133.832 151.489 131.921 151.489 130.234 151.489 129.559 151.489 128.884 151.489 124.948 151.489 122.811 151.489 116.85 151.489 111.564 151.489 104.704 151.549 102.473 151.323 100.243 150.814 98.0688 151.264 96.2694 149.915 91.6583 151.039 90.8711Z" fill="#D9D9D9" fill-rule="evenodd" transform="matrix(1 0 0 1.00049 302 29.1996)"/><path d="M219.53 291.507 219.53 287.009C221.308 287.058 223.075 286.712 224.703 285.996 225.695 285.124 226.199 283.823 226.053 282.51L226.053 262.829C226.053 261.029 226.053 259.905 224.928 259.342 223.23 258.602 221.376 258.293 219.53 258.443L219.53 254.169C221.829 254.172 224.123 253.985 226.39 253.607 228.415 253.607 230.214 251.358 231.789 250.683L236.85 250.683 236.85 282.51C236.703 283.823 237.207 285.124 238.199 285.996 239.945 286.715 241.823 287.06 243.71 287.009L243.71 291.507Z" fill="#D9D9D9" fill-rule="evenodd" transform="matrix(1 0 0 1.00049 302 29.1996)"/><path d="M298.705 264.516C298.805 262.398 298.125 260.318 296.793 258.668 295.361 257.259 293.4 256.522 291.395 256.643 287.501 256.251 284.027 259.089 283.635 262.982 283.587 263.455 283.587 263.931 283.635 264.403 283.537 266.452 284.22 268.462 285.547 270.027 286.906 271.485 288.842 272.267 290.832 272.163 292.981 272.342 295.104 271.608 296.681 270.139 298.126 268.639 298.862 266.593 298.705 264.516M299.267 274.413C297.614 275.499 295.789 276.298 293.869 276.774 291.969 277.326 289.998 277.591 288.021 277.562 283.98 277.748 280.001 276.515 276.774 274.075 273.878 271.905 272.204 268.472 272.276 264.853 272.166 260.91 274.128 257.198 277.449 255.069 281.456 252.365 286.228 251.025 291.057 251.245 296.343 250.914 301.537 252.741 305.453 256.306 309.035 260.167 310.866 265.335 310.514 270.589 310.842 276.28 308.808 281.854 304.89 285.996 300.654 289.896 295.004 291.887 289.258 291.507 285.568 291.62 281.905 290.848 278.574 289.258 275.762 287.796 274.413 285.996 274.413 283.86 274.374 282.662 274.868 281.509 275.762 280.711 276.843 279.94 278.146 279.546 279.474 279.586 281.872 279.586 283.559 281.048 284.534 283.972 284.557 284.234 284.557 284.497 284.534 284.759 284.757 285.439 285.191 286.029 285.772 286.446 286.703 286.599 287.652 286.599 288.583 286.446 291.535 286.617 294.4 285.414 296.343 283.185 298.312 280.692 299.346 277.589 299.267 274.413Z" fill="#D9D9D9" transform="matrix(1 0 0 1.00049 302 29.1996)"/><path d="M434.337 264.516C434.437 262.398 433.756 260.318 432.425 258.668 430.944 257.264 428.951 256.532 426.914 256.643 424.843 256.527 422.814 257.259 421.291 258.668 419.864 260.224 419.133 262.296 419.267 264.403 419.169 266.452 419.851 268.462 421.178 270.027 422.538 271.485 424.474 272.267 426.464 272.163 428.608 272.315 430.721 271.584 432.312 270.139 433.758 268.639 434.494 266.593 434.337 264.516M434.899 274.413C433.235 275.479 431.414 276.276 429.501 276.774 427.601 277.326 425.63 277.591 423.653 277.562 419.617 277.702 415.654 276.474 412.406 274.075 409.552 271.88 407.922 268.452 408.02 264.853 407.909 260.91 409.872 257.198 413.194 255.069 417.201 252.365 421.972 251.025 426.802 251.245 436.363 250.124 445.024 256.966 446.146 266.528 446.304 267.877 446.304 269.239 446.146 270.589 446.503 276.264 444.51 281.835 440.635 285.996 436.398 289.896 430.748 291.887 425.002 291.507 421.122 291.742 417.247 290.967 413.756 289.258 410.944 287.796 409.595 285.996 409.595 283.86 409.556 282.662 410.05 281.509 410.944 280.711 411.99 279.956 413.253 279.561 414.543 279.586 417.017 279.586 418.704 281.048 419.716 283.972 419.739 284.234 419.739 284.497 419.716 284.759 419.896 285.46 420.339 286.064 420.954 286.446 421.884 286.608 422.835 286.608 423.765 286.446 426.717 286.617 429.582 285.414 431.525 283.185 433.656 280.755 434.852 277.645 434.899 274.413Z" fill="#D9D9D9" transform="matrix(1 0 0 1.00049 302 29.1996)"/><path d="M338.855 291.507C342.004 278.461 346.502 277.112 357.861 272.613 362.164 271.219 365.103 267.24 365.171 262.716 365.089 260.821 364.186 259.056 362.697 257.88 361.254 256.674 359.401 256.069 357.524 256.193 355.95 256.153 354.395 256.541 353.025 257.318 351.788 257.993 351.113 258.78 351.113 259.68 351.362 260.232 351.663 260.76 352.013 261.254 352.53 262.058 352.805 262.996 352.8 263.953 352.818 265.196 352.231 266.371 351.226 267.103 350.055 267.962 348.628 268.398 347.177 268.34 345.703 268.387 344.275 267.817 343.241 266.765 342.225 265.67 341.697 264.209 341.779 262.716 341.779 254.394 353.025 250.683 359.323 250.683 364.095 250.556 368.808 251.762 372.931 254.169 378.273 257.911 379.57 265.274 375.828 270.616 375.039 271.743 374.058 272.723 372.931 273.513 367.308 276.662 351.113 276.662 350.438 282.173 350.438 283.522 350.438 285.097 354.037 284.984 359.79 285.132 365.537 284.527 371.132 283.185 372.583 281.85 373.699 280.193 374.393 278.349L378.33 278.349 379.229 291.507Z" fill="#D9D9D9" fill-rule="evenodd" transform="matrix(1 0 0 1.00049 302 29.1996)"/><path d="M570.981 282.06 570.981 284.31C569.096 285.261 567.355 286.472 565.807 287.908 563.896 289.37 562.996 290.72 562.996 291.845 562.945 292.631 562.945 293.42 562.996 294.206 562.92 294.954 562.92 295.708 562.996 296.456L562.996 297.805 596.06 293.869C596.688 293.785 597.296 293.595 597.86 293.307 598.44 292.912 598.843 292.307 598.984 291.62 599.066 290.947 599.066 290.268 598.984 289.595 599.033 288.771 599.033 287.945 598.984 287.121L601.234 287.121 604.045 309.614 601.796 309.614C601.796 309.052 601.796 308.377 601.796 307.365 601.625 306.673 601.399 305.996 601.121 305.34 600.786 304.749 600.276 304.278 599.659 303.991 599.027 303.872 598.379 303.872 597.747 303.991L565.47 308.039 565.47 309.389C565.47 309.389 565.47 310.739 565.47 311.638 565.431 312.387 565.431 313.139 565.47 313.888 565.47 315.012 566.932 316.024 569.069 317.149 570.959 318.105 572.962 318.823 575.03 319.286L575.03 321.535 563.783 322.997 558.835 283.522ZM604.72 328.733 604.158 351.226 601.908 351.226 601.908 348.639C601.953 347.927 601.953 347.214 601.908 346.502 601.726 345.893 601.326 345.373 600.784 345.04 600.192 344.897 599.576 344.897 598.984 345.04L569.744 344.253C569.189 344.124 568.611 344.124 568.057 344.253 567.422 344.53 566.932 345.06 566.707 345.715L566.707 347.739C566.707 348.639 566.707 349.314 566.145 349.989L563.896 349.989 564.57 327.496 566.82 327.496C566.82 328.058 566.82 328.733 566.82 329.633 566.733 330.342 566.733 331.06 566.82 331.769 566.922 332.443 567.339 333.029 567.944 333.344 568.538 333.46 569.15 333.46 569.744 333.344L598.984 334.131C599.578 334.249 600.19 334.249 600.784 334.131 601.333 333.778 601.764 333.27 602.021 332.669 602.11 331.998 602.11 331.316 602.021 330.645 602.106 329.897 602.106 329.142 602.021 328.396ZM602.021 379.454C601.706 381.819 601.063 384.128 600.109 386.315 599.325 388.14 598.344 389.875 597.185 391.488L598.872 393.737 598.872 396.211 584.139 394.524 584.139 392.05C585.601 392.05 587.176 391.151 588.863 390.588 590.454 389.944 591.964 389.113 593.361 388.114 594.779 387.161 596.033 385.984 597.073 384.628 598.079 383.187 598.734 381.53 598.984 379.792 599.427 377.626 599.025 375.373 597.86 373.494 596.824 371.982 595.182 370.997 593.361 370.794 591.825 370.573 590.268 371.024 589.088 372.032 587.581 373.452 586.392 375.177 585.601 377.092L583.464 381.366C583.464 382.603 582.227 383.84 581.665 384.965 580.391 387.3 578.427 389.185 576.042 390.363 573.867 391.501 571.378 391.896 568.956 391.488 567.353 391.256 565.819 390.68 564.458 389.801 563.078 388.834 561.895 387.612 560.971 386.202 559.991 384.613 559.305 382.861 558.947 381.029 558.217 376.719 558.805 372.29 560.634 368.32 561.304 366.776 562.134 365.306 563.108 363.934L562.321 361.91 562.321 359.885 576.267 361.572 576.267 364.047 571.431 365.396C569.944 365.883 568.511 366.524 567.157 367.308 565.969 368.083 564.939 369.075 564.12 370.232 563.182 371.436 562.598 372.876 562.433 374.393 562.142 376.233 562.543 378.117 563.558 379.679 564.477 381.06 565.958 381.967 567.607 382.153 569.127 382.437 570.696 382.024 571.88 381.029 573.363 379.63 574.548 377.947 575.367 376.08L577.391 371.919 579.303 368.208C580.548 365.878 582.368 363.903 584.589 362.472 586.862 361.259 589.481 360.862 592.012 361.348 593.79 361.581 595.487 362.237 596.96 363.259 598.409 364.275 599.633 365.576 600.559 367.083 601.588 368.862 602.31 370.801 602.696 372.819 602.807 375.046 602.618 377.278 602.133 379.454ZM596.06 403.859 590.325 418.479 579.078 421.178C576.042 421.966 572.555 423.09 568.619 424.327L567.944 425.902 579.191 430.401C579.78 430.558 580.401 430.558 580.99 430.401 581.65 430.339 582.258 430.015 582.677 429.501L583.689 428.039 584.814 426.352 586.838 427.139 578.853 447.495 576.716 446.708C576.716 446.146 576.716 445.471 577.391 444.571 577.465 443.898 577.465 443.219 577.391 442.547 577.534 441.955 577.534 441.339 577.391 440.747 576.92 440.333 576.389 439.993 575.817 439.735L548.713 429.276 546.913 429.276C546.248 429.4 545.648 429.758 545.227 430.288 544.697 430.825 544.244 431.43 543.877 432.087 543.877 432.762 542.977 433.325 542.752 433.774L540.728 432.987 549.163 411.507C550.395 407.643 552.649 404.185 555.686 401.497 558.023 399.576 561.245 399.141 564.008 400.373 566.422 401.177 568.408 402.92 569.519 405.209 570.712 407.89 571.102 410.858 570.643 413.756L577.841 411.619 586.276 409.032 589.762 407.683C590.83 407.315 591.793 406.699 592.574 405.883 592.99 405.455 593.332 404.961 593.586 404.421L594.261 403.184ZM560.409 411.057C558.356 410.033 555.94 410.033 553.886 411.057 551.91 412.314 550.438 414.224 549.725 416.455L548.825 418.592 565.02 424.89 565.807 422.865C566.697 420.626 566.697 418.132 565.807 415.893 564.775 413.712 562.972 411.989 560.747 411.057ZM544.102 447.945 543.202 449.857C541.381 449.518 539.512 449.518 537.691 449.857 535.97 449.992 534.344 450.705 533.08 451.881 532.52 452.459 532.03 453.101 531.618 453.793L530.269 455.93 527.12 460.991 540.728 469.313 542.865 465.714C543.414 464.883 543.831 463.973 544.102 463.015 544.326 462.129 544.326 461.202 544.102 460.316 543.852 459.397 543.39 458.549 542.752 457.842 542.164 457.019 541.485 456.264 540.728 455.592L541.965 453.681 556.585 462.678 555.461 464.59C554.452 464.163 553.394 463.861 552.312 463.69 551.382 463.53 550.43 463.53 549.5 463.69 548.581 463.808 547.719 464.199 547.026 464.815 546.307 465.533 545.667 466.324 545.114 467.176L542.865 470.775 553.099 476.961C553.899 477.521 554.768 477.975 555.686 478.31 556.342 478.533 557.053 478.533 557.71 478.31 558.374 478.004 558.953 477.541 559.397 476.961L561.309 474.149C561.309 474.149 562.321 472.35 562.321 472.35 562.737 471.66 563.113 470.946 563.446 470.213 563.84 469.504 564.143 468.749 564.345 467.964 564.508 467.375 564.508 466.752 564.345 466.164 563.898 464.395 563.217 462.693 562.321 461.103 561.601 459.62 560.775 458.192 559.847 456.83L560.971 455.03 571.431 462.34 551.075 494.843 549.163 493.718 550.175 491.694C550.175 490.794 550.175 490.231 550.85 489.782 551.027 489.156 551.027 488.495 550.85 487.87 550.454 487.403 549.999 486.987 549.5 486.633L524.646 471.562 523.071 470.888C522.386 470.942 521.727 471.174 521.159 471.562L519.472 473.024 518.123 474.599 516.211 473.474 535.33 442.434ZM515.311 478.873C514.934 479.371 514.596 479.897 514.299 480.447 513.94 480.988 513.71 481.603 513.624 482.247 513.419 483.059 513.419 483.909 513.624 484.721 513.784 485.599 514.01 486.464 514.299 487.307 514.299 488.657 515.536 490.569 516.548 493.156L520.147 502.04 523.971 511.6 528.132 521.721 523.971 525.77 503.84 517.335 489.669 511.262C488.874 510.962 488.042 510.773 487.195 510.7 486.339 510.546 485.464 510.546 484.608 510.7L482.921 511.375 481.122 512.499 479.547 510.925 495.517 495.292 496.979 496.867C496.079 497.988 495.288 499.194 494.618 500.466 494.618 501.141 494.618 501.703 494.618 501.928L495.18 501.928 496.08 501.928C497.767 502.715 500.466 503.952 504.402 505.527L521.946 512.949 517.335 501.928 513.512 493.268C513.054 492.15 512.527 491.06 511.937 490.007 511.536 489.264 511.085 488.551 510.588 487.87 510.588 487.87 509.463 487.87 508.563 487.87 506.994 488.566 505.55 489.516 504.29 490.681L502.715 488.994 514.636 477.748ZM498.216 548.938 479.435 562.321 478.085 560.409 479.885 558.947C480.508 558.578 481.045 558.08 481.459 557.485 481.648 556.939 481.648 556.345 481.459 555.798 481.333 555.201 481.105 554.631 480.784 554.111L464.14 530.044C463.812 529.585 463.391 529.201 462.903 528.919 462.361 528.601 461.724 528.482 461.103 528.582L459.079 529.257 456.83 530.269 455.592 528.357 474.374 515.536 475.724 517.335 474.037 518.797 472.462 520.372C472.218 520.986 472.218 521.67 472.462 522.284 472.588 522.881 472.816 523.451 473.137 523.971L489.669 547.926C490.061 548.397 490.515 548.814 491.019 549.163 491.644 549.34 492.305 549.34 492.931 549.163L494.955 548.488 496.979 547.363ZM451.206 533.98 449.182 535.217C448.371 535.787 447.683 536.514 447.158 537.354 446.861 538.345 446.861 539.4 447.158 540.391 447.632 542.223 448.312 543.996 449.182 545.676L461.103 572.33 456.267 574.467 419.716 556.36 428.151 573.567C428.888 575.23 429.792 576.813 430.85 578.291 431.481 579.169 432.395 579.805 433.437 580.09 434.322 580.319 435.251 580.319 436.136 580.09L438.948 580.09 439.848 582.115 423.765 589.65 422.753 587.513 425.002 586.051C425.712 585.561 426.291 584.905 426.689 584.139 426.984 583.187 426.984 582.168 426.689 581.215 426.195 579.337 425.478 577.524 424.552 575.817L416.342 558.16C415.962 557.346 415.47 556.589 414.88 555.911 414.23 555.284 413.467 554.788 412.631 554.449 411.702 554.278 410.749 554.278 409.82 554.449L406.783 554.449 405.883 552.424 419.941 545.901 451.994 561.759 445.358 547.701C444.67 545.98 443.762 544.354 442.659 542.865 442.005 542.01 441.1 541.381 440.072 541.065 439.139 540.947 438.194 540.947 437.261 541.065L434.562 541.065 434.112 539.828 449.857 531.956ZM399.135 556.473 396.886 557.373C395.963 557.669 395.118 558.17 394.412 558.835 393.589 559.795 393.294 561.101 393.625 562.321 393.588 564.212 393.777 566.099 394.187 567.944L397.224 582.902C398.042 586.833 397.143 590.925 394.749 594.148 391.958 597.626 387.926 599.884 383.503 600.446 378.781 601.712 373.764 601.274 369.332 599.209 365.619 597.17 363.078 593.505 362.472 589.312L358.423 568.732C358.36 568.151 358.125 567.602 357.749 567.157 357.265 566.645 356.638 566.293 355.949 566.145 355.318 566.014 354.668 566.014 354.037 566.145L352.238 566.145 352.238 563.896 373.381 559.847 373.381 561.984C372.622 562.02 371.868 562.133 371.132 562.321L369.332 563.108C368.702 563.358 368.237 563.907 368.095 564.57 367.927 565.159 367.927 565.782 368.095 566.37L372.144 586.726C372.498 589.893 374.072 592.797 376.53 594.823 378.974 596.364 381.951 596.813 384.74 596.06 387.678 595.673 390.303 594.033 391.938 591.562 393.57 588.693 393.975 585.286 393.062 582.115L390.363 568.507C390.066 566.685 389.538 564.908 388.789 563.221 388.36 562.252 387.656 561.43 386.764 560.859 385.859 560.537 384.912 560.348 383.953 560.297L381.254 560.297 381.254 558.047 398.911 554.561ZM545.339 233.701C545.572 234.262 545.873 234.79 546.239 235.275 546.593 235.776 547.009 236.229 547.476 236.625 548.228 237.256 549.06 237.784 549.95 238.199L552.874 239.211 559.847 241.011 568.057 242.923C569.406 243.326 570.81 243.515 572.218 243.485 573.769 243.361 575.289 242.981 576.716 242.36L582.227 240.561C582.842 240.391 583.391 240.038 583.802 239.549 584.264 239.057 584.542 238.422 584.589 237.749 584.589 237.749 584.589 236.625 584.589 235.613 584.629 234.825 584.629 234.038 584.589 233.251L586.726 232.576 594.148 254.057 592.012 254.844 590.999 252.707 589.987 250.795C589.568 250.281 588.96 249.957 588.3 249.895 587.673 249.738 587.016 249.738 586.388 249.895L579.528 252.257 577.954 252.82C577.581 252.759 577.201 252.759 576.829 252.82L575.704 253.944 574.017 255.856 568.394 262.379 563.446 268.227C562.782 269.082 562.18 269.985 561.646 270.926 561.283 271.716 561.019 272.547 560.859 273.4 560.745 274.071 560.745 274.755 560.859 275.425L560.859 277.337 558.722 278.124 551.075 255.631 553.211 254.956C553.662 256.351 554.306 257.676 555.123 258.893 555.123 259.567 556.023 259.792 556.36 259.68 556.78 259.44 557.16 259.137 557.485 258.78L559.734 256.418 563.783 252.032 569.631 245.284C562.883 243.597 558.385 242.585 555.573 242.023 554.036 241.598 552.443 241.408 550.85 241.461 550.227 241.792 549.838 242.441 549.838 243.148 549.858 244.45 550.086 245.741 550.512 246.971L548.375 247.759 543.427 233.363Z" fill="#D9D9D9" fill-rule="evenodd" transform="matrix(1 0 0 1.00049 302 29.1996)"/><path d="M54.8825 331.095 56.682 308.602 58.9312 308.602 58.9312 310.739C58.7849 311.406 58.7849 312.096 58.9312 312.763 59.0758 313.359 59.4366 313.88 59.9434 314.225 60.4606 314.614 61.0962 314.812 61.7428 314.787L75.9133 315.912 77.2629 298.368 63.3174 297.355C62.7294 297.187 62.1059 297.187 61.5179 297.355 60.9393 297.655 60.4677 298.127 60.1684 298.705L60.1684 300.504C60.1056 301.215 60.1056 301.93 60.1684 302.641L57.0194 302.641 58.8188 280.148 61.0681 280.148C60.9507 280.856 60.9507 281.578 61.0681 282.285 60.9857 282.958 60.9857 283.637 61.0681 284.31 61.2381 284.925 61.591 285.474 62.0802 285.884 62.6308 286.203 63.2455 286.396 63.8797 286.446L93.0079 288.583C93.5558 288.763 94.1469 288.763 94.6949 288.583 95.2516 288.255 95.7159 287.79 96.0444 287.234 96.3845 286.539 96.6848 285.826 96.9441 285.097 97.005 284.423 97.005 283.746 96.9441 283.072L99.1934 283.072 97.5065 305.565 95.2572 305.565C95.3078 304.853 95.3078 304.14 95.2572 303.428 95.2962 302.792 95.2962 302.153 95.2572 301.517 95.1972 300.858 94.8194 300.27 94.245 299.942 93.6505 299.83 93.0401 299.83 92.4456 299.942L80.187 299.042 78.7249 316.587 90.7586 317.486C91.314 317.612 91.8902 317.612 92.4456 317.486 93.0802 317.21 93.5697 316.679 93.7952 316.024 94.1649 315.437 94.4311 314.791 94.5824 314.113 94.8174 313.452 95.0053 312.775 95.1447 312.088L97.394 312.088 95.707 334.581 93.4578 334.581C93.5107 333.87 93.5107 333.155 93.4578 332.444 93.5188 331.733 93.5188 331.018 93.4578 330.307 93.2903 329.662 92.8897 329.101 92.3331 328.733 91.7754 328.632 91.204 328.632 90.6462 328.733L61.4055 326.484 59.606 326.146C59.0353 326.473 58.5975 326.991 58.3689 327.608 58.0906 328.226 57.8649 328.864 57.6941 329.52 57.6211 330.231 57.6211 330.946 57.6941 331.657ZM308.264 587.738 306.577 587.738 304.778 587.738C304.082 587.783 303.433 588.107 302.979 588.638 302.658 589.157 302.43 589.727 302.304 590.325L301.517 595.048 301.517 597.297C301.517 597.972 301.517 598.647 301.517 599.547 298.563 600.492 295.503 601.059 292.407 601.234 288.898 601.697 285.344 601.697 281.835 601.234 279.043 600.722 276.347 599.774 273.85 598.422 271.504 597.068 269.443 595.273 267.777 593.136 266.163 590.915 265.016 588.39 264.403 585.714 263.293 579.641 264.411 573.372 267.552 568.057 269.018 565.586 271.016 563.474 273.4 561.871 275.775 560.281 278.457 559.208 281.273 558.722 284.434 558.161 287.671 558.161 290.832 558.722 293.01 559.125 295.126 559.805 297.13 560.747 298.716 561.494 300.223 562.399 301.629 563.446L303.653 562.209 306.128 562.209 303.653 577.279 301.067 577.279C300.756 573.332 299.606 569.498 297.693 566.032 296.076 563.577 293.508 561.906 290.608 561.421 287.133 560.716 283.552 561.967 281.273 564.683 278.344 568.302 276.475 572.662 275.875 577.279 274.647 582.037 274.647 587.028 275.875 591.787 276.86 595.183 279.7 597.717 283.185 598.31 284.709 598.589 286.272 598.589 287.796 598.31 288.988 598.112 290.133 597.692 291.17 597.073L292.632 588.863C292.744 588.268 292.744 587.658 292.632 587.063 292.359 586.473 291.931 585.968 291.395 585.601L289.258 584.814 287.121 584.027 287.121 581.89 307.815 585.601ZM261.479 557.26 259.23 557.26C258.275 556.979 257.261 556.979 256.306 557.26 255.278 557.513 254.39 558.159 253.832 559.06 252.757 560.607 251.851 562.266 251.133 564.008L238.986 590.774 234.15 588.638 224.029 549.275 216.044 566.82C215.235 568.464 214.631 570.201 214.244 571.993 213.893 573.013 213.893 574.122 214.244 575.142 214.701 575.931 215.313 576.62 216.044 577.166L218.181 578.853 217.281 580.878 201.423 573.567 202.323 571.431C203.141 571.802 204.016 572.03 204.91 572.105 205.763 572.272 206.643 572.272 207.496 572.105 208.502 571.869 209.384 571.269 209.971 570.418 211.098 568.884 212.041 567.223 212.782 565.47L220.767 547.701C221.183 546.853 221.449 545.94 221.555 545.002 221.724 544.148 221.724 543.268 221.555 542.415 221.245 541.53 220.747 540.725 220.092 540.053 219.379 539.296 218.588 538.618 217.731 538.029L218.743 536.004 232.913 542.302 241.798 576.829 247.421 562.321C248.269 560.694 248.875 558.951 249.221 557.148 249.572 556.128 249.572 555.019 249.221 553.999 248.794 553.188 248.177 552.493 247.421 551.974 246.78 551.328 246.063 550.761 245.284 550.287L246.184 548.263 262.379 555.573ZM188.602 565.245 169.371 552.987 170.608 551.075 172.633 552.199C173.225 552.56 173.87 552.826 174.544 552.987 175.17 553.164 175.831 553.164 176.456 552.987 177.015 552.457 177.439 551.801 177.693 551.075L193.551 526.557C193.886 526.056 194.079 525.473 194.113 524.87 194.159 524.222 193.958 523.578 193.551 523.071L192.089 521.497C191.587 520.911 191.022 520.382 190.402 519.922L191.189 518.46 210.308 530.719 209.183 532.63 207.159 531.618 205.135 530.831C204.518 530.598 203.839 530.598 203.223 530.831 202.666 531.159 202.202 531.624 201.873 532.181L186.128 556.698C185.808 557.217 185.579 557.788 185.453 558.385 185.493 559.038 185.728 559.666 186.128 560.184 186.508 560.732 186.963 561.223 187.478 561.646L189.277 563.221ZM177.356 512.724C177.497 515.48 177.076 518.234 176.119 520.822 175.063 523.742 173.373 526.392 171.171 528.582 168.16 531.857 164.246 534.166 159.924 535.217 155.643 536.133 151.178 535.62 147.216 533.755 145.717 535.368 144.771 537.416 144.517 539.603 144.191 541.467 144.826 543.369 146.203 544.664 146.921 545.339 147.671 545.977 148.453 546.576L150.477 547.813 148.678 549.613C147.125 548.931 145.622 548.142 144.179 547.251 142.235 546.063 140.424 544.668 138.781 543.09 136.55 541.143 135.175 538.395 134.957 535.442 134.788 532.37 135.885 529.361 137.994 527.12 134.589 523.156 132.61 518.168 132.37 512.949 132.422 510.373 132.917 507.823 133.832 505.414 134.92 502.822 136.484 500.457 138.443 498.441 140.553 496.138 143.12 494.3 145.979 493.043 148.593 491.86 151.431 491.247 154.301 491.244 157.133 491.139 159.949 491.717 162.511 492.931 168.027 495.228 172.509 499.47 175.107 504.852 176.229 507.328 176.841 510.006 176.906 512.724ZM151.039 528.582C153.021 527.858 154.88 526.834 156.55 525.545 158.563 524.019 160.445 522.327 162.173 520.484 163.824 518.818 165.33 517.011 166.672 515.086 167.947 513.425 168.936 511.563 169.596 509.575 170.203 507.884 170.396 506.071 170.158 504.29 169.869 502.463 168.955 500.793 167.572 499.566 165.117 497.218 161.537 496.475 158.35 497.654 153.67 499.427 149.499 502.323 146.203 506.089 144.508 507.827 142.965 509.708 141.592 511.712 140.412 513.454 139.466 515.345 138.781 517.335 138.342 519.032 138.342 520.812 138.781 522.509 139.073 524.271 139.992 525.868 141.368 527.007 142.601 528.221 144.167 529.043 145.866 529.369 147.63 529.549 149.41 529.278 151.039 528.582ZM128.547 493.043 127.534 491.806 126.185 490.569C125.691 490.053 124.981 489.803 124.273 489.894 123.67 489.999 123.095 490.228 122.586 490.569L118.537 493.156 116.513 494.393 114.713 495.63C112.005 494.177 109.508 492.36 107.291 490.231 104.692 487.896 102.389 485.253 100.431 482.359 98.8929 479.973 97.7534 477.351 97.0566 474.599 96.498 471.966 96.498 469.247 97.0566 466.614 97.5264 463.898 98.6027 461.321 100.206 459.079 101.995 456.536 104.293 454.391 106.953 452.781 109.536 451.128 112.392 449.948 115.388 449.295 118.171 448.875 121.01 449.066 123.711 449.857 126.524 450.49 129.17 451.717 131.471 453.456 133.997 455.434 136.164 457.831 137.881 460.541 139.056 462.35 139.966 464.321 140.58 466.389 141.166 468.061 141.544 469.798 141.705 471.562L144.067 472.237 145.416 474.374 132.82 482.584 131.471 480.447C134.028 477.629 135.946 474.291 137.094 470.663 137.891 467.825 137.398 464.781 135.744 462.34 133.89 459.308 130.521 457.538 126.972 457.729 122.305 458.067 117.824 459.703 114.039 462.453 109.681 464.791 106.059 468.295 103.58 472.575 101.651 475.552 101.651 479.382 103.58 482.359 104.352 483.678 105.385 484.826 106.616 485.733 107.604 486.47 108.705 487.04 109.878 487.42L116.85 482.921C117.368 482.629 117.795 482.202 118.087 481.684 118.331 481.07 118.331 480.386 118.087 479.772 117.936 479.003 117.71 478.25 117.413 477.523 117.155 476.83 116.855 476.154 116.513 475.499L118.425 474.262 129.671 492.256ZM118.987 436.811 117.75 434.787C117.291 433.897 116.589 433.156 115.726 432.65 114.739 432.324 113.675 432.324 112.689 432.65 110.846 433.06 109.04 433.625 107.291 434.337L79.8496 445.583 77.9377 440.747 98.1813 404.871 80.187 411.844C78.442 412.461 76.7799 413.292 75.2386 414.318 74.3275 414.867 73.6176 415.696 73.2142 416.68 73.0355 417.571 73.0355 418.488 73.2142 419.379 73.2142 420.616 73.2142 421.516 73.2142 422.191L71.0774 422.978 64.6669 406.558 67.4785 404.871C67.8037 405.665 68.2188 406.42 68.7156 407.12 69.2052 407.86 69.8596 408.476 70.6275 408.92 71.4995 409.462 72.5409 409.662 73.5516 409.482 75.3189 409.276 77.0555 408.86 78.7249 408.245L96.9441 401.16C97.8288 400.851 98.6349 400.352 99.3059 399.698 100.106 399.197 100.764 398.501 101.218 397.673 101.375 396.78 101.375 395.867 101.218 394.974 101.382 393.931 101.382 392.869 101.218 391.825L103.355 391.038 108.978 405.433 91.096 436.249 105.604 430.625C107.375 429.984 109.071 429.154 110.665 428.151 111.528 427.528 112.192 426.669 112.577 425.677 112.755 424.786 112.755 423.869 112.577 422.978 112.577 421.741 112.577 420.841 112.577 420.166L114.601 419.379 121.124 435.911ZM96.4943 380.579C94.8624 382.807 92.7966 384.682 90.4212 386.09 87.7793 387.678 84.8252 388.675 81.7615 389.014 78.8597 389.524 75.8911 389.524 72.9893 389.014 70.3128 388.401 67.788 387.254 65.5666 385.64 63.3188 383.862 61.4133 381.69 59.9434 379.229 58.3938 376.376 57.4374 373.239 57.1318 370.007 56.2152 364.367 57.5478 358.593 60.8431 353.925 62.5473 351.318 64.8148 349.128 67.4785 347.514 72.9338 344.51 79.331 343.706 85.3603 345.265 88.0983 346.033 90.6585 347.333 92.8954 349.089 95.0693 350.894 96.8655 353.111 98.1813 355.612 99.549 358.251 100.461 361.103 100.88 364.047 101.394 366.91 101.394 369.843 100.88 372.706 99.9738 375.479 98.5207 378.041 96.6068 380.242ZM66.3539 376.868C68.3583 377.509 70.4376 377.887 72.5394 377.992 75.0488 378.144 77.5651 378.144 80.0745 377.992 82.4018 377.781 84.701 377.329 86.9348 376.643 88.9971 376.115 90.9685 375.282 92.783 374.168 94.2955 373.242 95.5672 371.97 96.4943 370.457 97.4078 368.856 97.7638 366.997 97.5065 365.171 97.1374 361.772 94.8019 358.907 91.5459 357.861 86.891 356.4 81.951 356.092 77.1505 356.961 74.7439 357.199 72.369 357.688 70.0652 358.423 68.0415 359.013 66.1108 359.883 64.3295 361.01 62.8321 361.919 61.5929 363.196 60.7307 364.721 59.9115 366.273 59.597 368.042 59.831 369.782 60.0769 371.529 60.8185 373.167 61.9678 374.506 63.299 375.506 64.8355 376.196 66.4663 376.53ZM67.4785 248.996C68.3511 246.255 69.7239 243.701 71.5272 241.461 73.1306 239.308 75.1595 237.51 77.4878 236.175 79.9364 234.926 82.6168 234.199 85.3603 234.038 88.3749 233.85 91.3965 234.271 94.245 235.275 97.1287 236.213 99.8024 237.703 102.118 239.661 104.303 241.517 106.066 243.817 107.291 246.409 108.525 248.943 109.251 251.694 109.428 254.507 109.54 257.526 109.082 260.54 108.078 263.391 107.409 265.387 106.462 267.281 105.266 269.014 104.316 270.434 103.223 271.753 102.005 272.951L102.905 275.2 102.118 277.562 87.7221 273.176 88.6218 270.814C92.4492 271.089 96.2901 270.512 99.8682 269.127 102.472 267.993 104.446 265.772 105.266 263.054 106.522 259.837 105.773 256.183 103.355 253.719 100.056 250.396 95.9466 247.993 91.4334 246.746 88.7845 245.82 86.0233 245.252 83.2235 245.06 81.145 244.815 79.0384 245.007 77.038 245.622 75.4038 246.137 73.9313 247.067 72.7643 248.321 71.5447 249.604 70.6231 251.139 70.0652 252.82 69.2817 255.27 69.2817 257.904 70.0652 260.355 70.9407 263.19 72.4833 265.774 74.5638 267.89L72.3145 269.802C71.0277 268.524 69.8607 267.131 68.8281 265.64 66.8518 262.646 65.868 259.104 66.0165 255.519 66.1762 253.284 66.669 251.085 67.4785 248.996Z" fill="#D9D9D9" fill-rule="evenodd" transform="matrix(1 0 0 1.00049 302 29.1996)"/><path d="M773.304 397.111 803.669 397.111 803.669 389.014 952.122 389.014 952.122 397.336 982.937 397.336 982.937 179.943 773.304 179.943 773.304 397.111ZM803.669 207.384 952.122 207.384 952.122 360.673 803.669 360.673 803.669 207.384ZM946.836 348.639 946.836 322.435 925.468 322.435 937.389 312.988C933.116 307.477 926.143 299.155 920.745 292.519L938.176 292.519 938.176 266.653 891.054 266.653 891.054 245.959 940.651 245.959 940.651 220.092 814.803 220.092 814.803 245.959 862.151 245.959 862.151 266.653 818.177 266.653 818.177 292.407 862.151 292.407 862.151 322.322 808.505 322.322 808.505 348.639ZM914.109 322.547 891.616 322.547 891.616 292.407 906.799 292.407 896.902 299.717C900.951 304.553 909.161 314.45 914.671 322.21ZM1229.01 386.315 1248.35 362.36C1216.98 345.94 1200.44 331.544 1186.27 303.203 1201.01 296.118 1215.18 288.471 1226.53 281.835L1211.91 257.543C1191.52 270.075 1170.37 281.343 1148.6 291.282 1144.4 283.638 1139.39 276.473 1133.64 269.914 1138.93 266.653 1143.76 263.616 1148.6 260.017L1204.83 260.017 1204.83 235.275 1055.7 235.275 1055.7 260.017 1100.69 260.017C1074.94 272.271 1048.04 281.952 1020.39 288.921L1030.28 314.787C1057.52 307.112 1083.9 296.674 1109.01 283.635L1112.05 287.908C1082.71 304.553 1051.53 317.725 1019.15 327.158L1029.05 352.463C1062.01 341.567 1093.65 327.046 1123.41 309.164 1124.26 311.2 1124.95 313.307 1125.43 315.462 1091.43 339.376 1053.58 357.292 1013.53 368.433L1025.9 394.749C1062.73 381.823 1097.59 363.844 1129.48 341.329 1129.65 344.1 1129.65 346.88 1129.48 349.651 1129.48 367.421 1123.85 372.144 1105.19 372.144L1081.01 372.144 1086.07 398.461 1115.42 398.461C1150.4 398.461 1160.41 387.214 1160.41 354.15 1160.51 341.778 1159.42 329.425 1157.14 317.262L1160.86 315.687C1175.86 345.594 1199.33 370.429 1228.33 387.102ZM1024.77 247.421 1054.13 247.421 1054.13 220.092 1207.64 220.092 1207.64 247.421 1237.11 247.421 1237.11 194.226 1151.3 194.226 1153.32 193.551C1148.26 184.666 1141.4 172.97 1138.36 167.122L1106.87 179.943C1109.57 184.216 1112.61 189.727 1115.64 194.788L1024.77 194.788 1024.77 247.421ZM1296.26 226.615 1296.26 324.122 1368.91 324.122 1368.91 336.83 1273.21 336.83 1273.21 362.81 1368.91 362.81 1368.91 396.549 1399.28 396.549 1399.28 362.81 1495.77 362.81 1495.77 336.38 1399.84 336.38 1399.84 323.672 1473.06 323.672 1473.06 226.166 1395.79 226.166 1395.79 214.919 1487 214.919 1487 189.052 1395.79 189.052 1395.79 173.307 1364.87 173.307 1364.87 226.166ZM1326.63 252.482 1441.57 252.482 1441.57 263.054 1327.08 263.054 1327.08 252.482ZM1326.63 298.255 1326.63 287.683 1441.57 287.683 1441.57 298.255ZM1561.57 289.933 1535.81 289.933C1535.81 337.28 1531.43 357.411 1516.02 391.151L1541.32 399.81C1546.33 388.893 1550.5 377.614 1553.81 366.071 1566.96 386.427 1591.03 395.199 1627.24 395.199L1747.47 395.199 1752.53 366.858 1661.88 366.858C1672.96 357.602 1683.44 347.647 1693.26 337.055 1703.16 359.548 1713.5 364.609 1723.63 364.609 1736.56 364.609 1742.97 357.524 1747.69 338.292 1750.2 328.437 1752.15 318.449 1753.54 308.377L1730.04 300.279C1729.47 306.128 1727.45 317.486 1726.66 322.772 1725.88 328.058 1724.41 330.87 1723.18 330.87 1721.94 330.87 1719.35 328.845 1717.1 322.547 1716.09 319.511 1714.85 315.687 1713.84 311.301 1726.19 292.359 1736.05 271.911 1743.2 250.458L1720.7 242.36C1716.81 253.544 1712.23 264.474 1706.98 275.087 1705.18 262.941 1703.72 249.671 1702.71 235.5L1747.69 235.5 1747.69 209.408 1727.9 209.408 1741.85 196.25C1736.56 190.177 1723.29 177.356 1717.22 171.958L1700.01 188.153 1700.01 174.994 1672.68 174.994 1673.47 209.408 1629.38 209.408 1629.38 302.866C1629.38 310.289 1629.38 314.113 1624.88 317.599L1624.88 305.453 1600.25 305.453 1600.25 278.124 1625.11 278.124 1625.11 251.807 1595.42 251.807 1595.42 227.403 1624.55 227.403 1624.55 201.086 1595.42 201.086 1595.42 175.332 1567.64 175.332 1567.64 201.086 1534.69 201.086 1534.69 227.403 1567.64 227.403 1567.64 251.807 1526.36 251.807 1526.36 278.124 1572.92 278.124 1572.92 347.964C1567.3 340.14 1563.12 331.383 1560.55 322.097 1560.55 312.538 1561.23 301.629 1561.23 289.483ZM1625.22 332.782 1625.22 322.322 1638.04 339.08C1648.16 330.982 1676.84 308.152 1679.88 306.128L1671.56 280.261 1656.6 292.182 1656.6 235.95 1675.72 235.95C1676.89 260.644 1680.05 285.202 1685.16 309.389 1672.06 323.828 1657.6 336.972 1641.98 348.639L1658.17 366.633 1630.73 366.633C1620.79 366.873 1610.86 366.195 1601.04 364.609L1601.04 332.332ZM1719.35 209.858 1701.13 209.858 1700.35 189.952C1705.41 194.676 1713.5 203.56 1719.35 209.858ZM1986.79 220.317 1986.79 187.928 1794.82 187.928 1794.82 219.868 1873.54 219.868 1873.54 354.825 1779.63 354.825 1779.63 385.64 2001.86 385.64 2001.86 354.6 1907.62 354.6 1907.62 219.643ZM2248.61 299.83 2248.61 271.489 2118.49 271.489 2118.49 299.38 2167.86 299.38 2167.86 317.374 2122.87 317.374 2122.87 344.14 2167.86 344.14 2167.86 361.91 2104.77 361.91 2104.77 391.263 2256.26 391.263 2256.26 361.91 2196.65 361.91 2196.65 344.14 2242.54 344.14 2242.54 317.374 2196.65 317.374 2196.65 299.38ZM2103.98 331.207 2124.79 313.213C2116.91 303.653 2100.94 285.659 2094.65 278.574L2088.8 283.635 2088.8 266.203 2115.68 266.203 2115.68 237.299 2088.8 237.299 2088.8 210.196C2098.81 208.34 2108.72 205.976 2118.49 203.11L2112.42 175.332C2086.18 182.375 2059.5 187.674 2032.57 191.189L2035.15 219.643C2042.46 218.63 2051.91 217.056 2061.47 215.256L2061.47 237.749 2032.12 237.749 2032.12 266.653 2059.22 266.653C2050.47 290.143 2038.8 312.438 2024.47 333.007L2041.68 357.749C2049.18 346.661 2055.79 335.004 2061.47 322.885L2061.47 397.336 2088.8 397.336 2088.8 311.751 2103.98 330.757ZM2120.96 183.092 2120.96 258.668 2244.11 258.668 2244.11 182.192ZM2149.87 209.183 2214.65 209.183 2214.65 233.701 2149.87 233.701 2149.87 208.734ZM2507.95 211.433 2507.95 183.092 2371.65 183.092 2371.65 210.983 2423.38 210.983 2423.38 233.476 2374.23 233.476 2374.23 361.685 2401.11 361.685 2401.11 261.592 2423.6 261.592 2423.6 396.549 2450.37 396.549 2450.37 342.116 2455.43 366.746 2472.64 366.746C2495.13 366.746 2500.08 360.898 2500.08 338.63L2500.08 233.251 2450.37 233.251 2450.37 210.758ZM2362.31 175.444 2334.42 175.444 2334.42 269.914C2334.42 331.994 2329.36 348.639 2287.86 382.378L2310.35 402.847C2352.3 365.059 2361.97 337.73 2361.97 267.89L2361.97 174.994ZM2291.68 339.867 2317.77 339.867 2317.77 191.189 2291.68 191.189 2291.68 339.417ZM2473.54 262.042 2473.54 328.396C2473.54 338.067 2472.75 338.855 2463.3 338.855L2450.15 338.855 2450.15 261.592ZM2542.82 265.64 2572.96 265.64 2572.96 240.336 2727.26 240.336 2727.26 255.294 2579.59 255.294 2579.59 284.197 2675.52 284.197C2662.57 288.62 2650.04 294.191 2638.07 300.842L2638.07 309.951 2540.34 309.951 2540.34 339.417 2638.07 339.417 2638.07 356.287C2638.07 367.533 2637.06 368.77 2624.35 368.77L2593.2 368.77 2599.39 398.573 2630.99 398.573C2660.9 398.573 2670.01 391.825 2670.01 365.396L2670.01 339.417 2759.98 339.417 2759.98 309.951 2675.19 309.951C2691.61 300.617 2722.53 283.41 2730.63 283.185L2730.63 265.191 2757.51 265.191 2757.51 211.77 2720.96 211.77C2727.82 202.661 2734.9 192.201 2739.97 185.116L2711.17 170.946C2703.29 185.06 2694.59 198.692 2685.08 211.77L2668.78 211.77 2673.16 209.746C2668.78 202.098 2653.14 173.982 2650.67 168.696L2623.79 180.842 2639.76 211.77 2608.38 211.77 2613.22 209.183C2608.94 202.098 2591.96 176.794 2587.91 170.946L2561.03 184.104C2564.63 190.514 2572.28 202.098 2578.02 211.77L2542.82 211.77 2542.82 265.191ZM2796.87 395.762 2824.2 395.762 2824.2 340.092 2827.46 356.287 2839.38 356.287C2865.25 356.287 2875.15 347.514 2875.15 317.599 2874.68 296.594 2868.23 276.157 2856.59 258.668L2873.57 209.521 2873.57 181.067 2797.32 181.067 2797.32 394.749ZM2875.6 250.908 2893.03 250.908 2893.03 271.039 2993.57 271.039 2993.57 250.458 3012.8 250.458 3012.8 195.575 2959.95 195.575C2955.67 185.903 2949.26 173.082 2947.24 169.708L2919.46 175.557 2928.79 195.575 2875.6 195.575 2875.6 250.458ZM3019.89 339.08 2995.93 334.469C2995.93 340.317 2995.93 351.451 2995.37 358.086 2994.81 364.721 2993.91 367.87 2987.27 367.87L2981.65 367.87C2975.13 367.87 2973.33 367.196 2973.33 359.773L2973.33 318.049 3011.34 318.049 3011.34 290.72 2879.08 290.72 2879.08 318.049 2900.9 318.049C2899.89 349.989 2892.02 361.348 2856.59 381.928L2876.61 403.184C2916.53 377.655 2928.01 359.661 2928.46 318.611L2928.46 318.611 2945.89 318.611 2945.89 367.983C2945.89 390.476 2953.08 396.436 2973.33 396.436L2988.74 396.436C3009.54 396.436 3018.65 390.588 3019.33 367.983 3019.89 360.673 3020.11 346.502 3020.34 339.192ZM2824.2 210.421 2845.34 210.421 2827.91 264.853C2838.78 277.429 2845.19 293.245 2846.13 309.839 2846.13 323.56 2843.1 328.62 2830.5 328.62L2823.86 328.62 2823.86 209.971ZM2901.58 223.354 2986.49 223.354 2986.49 243.597 2901.58 243.597 2901.58 223.354Z" fill="#D9D9D9" transform="matrix(1 0 0 1.00049 302 29.1996)"/><path d="M773.304 450.869 788.711 450.869 811.204 488.432 818.74 503.727 818.74 503.727C817.591 495.525 816.915 487.265 816.715 478.985L816.715 450.869 831.111 450.869 831.111 521.497 815.815 521.497 793.997 483.596 786.35 468.413 786.35 468.413C787.025 476.061 788.149 484.946 788.149 493.043L788.149 521.384 773.304 521.384Z" fill="#D9D9D9" transform="matrix(1 0 0 1.00049 302 29.1996)"/><path d="M885.431 503.39 860.801 503.39 855.515 521.497 840.22 521.497 864.4 450.869 882.169 450.869 906.574 521.497 890.716 521.497ZM882.057 492.143 879.808 484.383C877.558 477.073 875.421 468.976 873.172 461.328L873.172 461.328C871.148 469.088 868.898 477.073 866.649 484.383L864.4 492.143Z" fill="#D9D9D9" transform="matrix(1 0 0 1.00049 302 29.1996)"/><path d="M922.206 462.565 901.288 462.565 901.288 451.319 959.207 451.319 959.207 462.565 937.727 462.565 937.727 521.497 922.206 521.497Z" fill="#D9D9D9" transform="matrix(1 0 0 1.00049 302 29.1996)"/><path d="M971.466 450.869 986.649 450.869 986.649 521.497 971.466 521.497Z" fill="#D9D9D9" transform="matrix(1 0 0 1.00049 302 29.1996)"/><path d="M1000.93 485.845C1000.93 467.211 1016.04 452.106 1034.67 452.106 1053.3 452.106 1068.41 467.211 1068.41 485.845 1068.41 504.48 1053.3 519.585 1034.67 519.585 1016.04 519.585 1000.93 504.48 1000.93 485.845ZM1053.23 485.845C1053.23 470.663 1046.03 461.666 1034.78 461.666 1023.54 461.666 1016.45 470.663 1016.45 485.845 1016.45 501.028 1023.54 510.588 1034.78 510.588 1046.03 510.588 1053.68 500.916 1053.68 485.845Z" fill="#D9D9D9" transform="matrix(1 0 0 1.00049 302 29.1996)"/><path d="M1083.93 450.869 1099.34 450.869 1121.83 488.432 1129.37 503.727 1129.93 503.727C1128.78 495.525 1128.11 487.265 1127.9 478.985L1127.9 450.869 1142.3 450.869 1142.3 521.497 1126.89 521.497 1104.62 483.596 1096.98 468.413 1096.41 468.413C1097.09 476.061 1098.21 484.946 1098.21 493.043L1098.21 521.384 1083.93 521.384Z" fill="#D9D9D9" transform="matrix(1 0 0 1.00049 302 29.1996)"/><path d="M1195.94 503.39 1171.43 503.39 1166.14 521.497 1150.85 521.497 1175.03 450.869 1192.8 450.869 1217.2 521.497 1201.34 521.497ZM1192.68 492.143 1190.43 484.383C1188.07 477.073 1186.05 468.976 1183.8 461.328L1183.8 461.328C1181.77 469.088 1179.52 477.073 1177.28 484.383L1175.03 492.143Z" fill="#D9D9D9" transform="matrix(1 0 0 1.00049 302 29.1996)"/><path d="M1225.86 450.869 1240.93 450.869 1240.93 509.688 1271.63 509.688 1271.63 520.934 1225.86 520.934Z" fill="#D9D9D9" transform="matrix(1 0 0 1.00049 302 29.1996)"/><path d="M1308.3 450.869 1354.63 450.869 1354.63 462.115 1323.37 462.115 1323.37 478.423 1349.57 478.423 1349.57 490.344 1322.92 490.344 1322.92 509.238 1355.31 509.238 1355.31 520.484 1307.85 520.484Z" fill="#D9D9D9" transform="matrix(1 0 0 1.00049 302 29.1996)"/><path d="M1371.16 450.869 1386.23 450.869 1386.23 509.688 1417.05 509.688 1417.05 520.934 1371.28 520.934Z" fill="#D9D9D9" transform="matrix(1 0 0 1.00049 302 29.1996)"/><path d="M1430.09 450.869 1445.28 450.869 1445.28 521.497 1430.09 521.497Z" fill="#D9D9D9" transform="matrix(1 0 0 1.00049 302 29.1996)"/><path d="M1478.9 462.565 1457.65 462.565 1457.65 451.319 1515.46 451.319 1515.46 462.565 1494.09 462.565 1494.09 521.497 1478.9 521.497Z" fill="#D9D9D9" transform="matrix(1 0 0 1.00049 302 29.1996)"/><path d="M1527.83 450.869 1574.5 450.869 1574.5 462.115 1543.23 462.115 1543.23 478.423 1569.78 478.423 1569.78 490.344 1543.23 490.344 1543.23 509.238 1575.62 509.238 1575.62 520.484 1528.16 520.484Z" fill="#D9D9D9" transform="matrix(1 0 0 1.00049 302 29.1996)"/><path d="M1613.86 450.869 1629.04 450.869 1629.04 521.497 1613.86 521.497Z" fill="#D9D9D9" transform="matrix(1 0 0 1.00049 302 29.1996)"/><path d="M1647.6 450.869 1663.01 450.869 1685.5 488.432 1693.04 503.727 1693.6 503.727C1692.45 495.525 1691.78 487.265 1691.57 478.985L1691.57 450.869 1705.97 450.869 1705.97 521.497 1690.56 521.497 1668.29 483.596 1660.65 468.413 1660.65 468.413C1661.32 476.061 1662.45 484.946 1662.45 493.043L1662.45 521.384 1647.6 521.384Z" fill="#D9D9D9" transform="matrix(1 0 0 1.00049 302 29.1996)"/><path d="M1719.13 512.499 1727.9 502.827C1733.23 507.55 1740.02 510.291 1747.13 510.588 1755 510.588 1759.17 507.439 1759.17 502.49 1759.17 497.542 1754.55 495.63 1747.92 492.931L1737.8 488.882C1729.15 486.557 1722.97 478.932 1722.5 469.988 1722.5 458.742 1733.75 449.519 1748.59 449.519 1757.37 449.451 1765.85 452.704 1772.32 458.629L1764.68 467.401C1760.15 463.667 1754.46 461.637 1748.59 461.666 1741.96 461.666 1737.35 464.365 1737.35 469.088 1737.35 473.812 1742.75 475.949 1749.16 478.31L1759.17 482.247C1768.06 484.378 1774.34 492.329 1774.35 501.478 1774.35 512.724 1764 522.846 1746.57 522.846 1736.47 522.811 1726.73 519.137 1719.13 512.499Z" fill="#D9D9D9" transform="matrix(1 0 0 1.00049 302 29.1996)"/><path d="M1800.66 462.565 1779.41 462.565 1779.41 451.319 1837.22 451.319 1837.22 462.565 1815.73 462.565 1815.73 521.497 1800.66 521.497Z" fill="#D9D9D9" transform="matrix(1 0 0 1.00049 302 29.1996)"/><path d="M1849.47 450.869 1864.66 450.869 1864.66 521.497 1849.47 521.497Z" fill="#D9D9D9" transform="matrix(1 0 0 1.00049 302 29.1996)"/><path d="M1898.28 462.565 1877.03 462.565 1877.03 451.319 1934.95 451.319 1934.95 462.565 1913.47 462.565 1913.47 521.497 1898.28 521.497Z" fill="#D9D9D9" transform="matrix(1 0 0 1.00049 302 29.1996)"/><path d="M1946.76 489.669 1946.76 450.869 1961.94 450.869 1961.94 490.906C1961.94 505.639 1967.34 510.588 1976.22 510.588 1985.11 510.588 1990.62 506.089 1990.62 490.906L1990.62 450.869 2005.12 450.869 2005.12 489.669C2005.12 513.174 1993.88 523.408 1975.88 523.408 1957.89 523.408 1946.76 513.174 1946.76 489.669Z" fill="#D9D9D9" transform="matrix(1 0 0 1.00049 302 29.1996)"/><path d="M2038.64 462.565 2017.38 462.565 2017.38 451.319 2075.3 451.319 2075.3 462.565 2053.82 462.565 2053.82 521.497 2038.64 521.497Z" fill="#D9D9D9" transform="matrix(1 0 0 1.00049 302 29.1996)"/><path d="M2087.56 450.869 2134.01 450.869 2134.01 462.115 2103.08 462.115 2103.08 478.423 2129.73 478.423 2129.73 490.344 2103.08 490.344 2103.08 509.238 2135.58 509.238 2135.58 520.484 2088.01 520.484Z" fill="#D9D9D9" transform="matrix(1 0 0 1.00049 302 29.1996)"/><path d="M2169.88 485.845C2169.88 467.211 2184.99 452.106 2203.62 452.106 2222.26 452.106 2237.36 467.211 2237.36 485.845 2237.36 504.48 2222.26 519.585 2203.62 519.585 2184.99 519.585 2169.88 504.48 2169.88 485.845ZM2222.07 485.845C2222.07 470.663 2214.98 461.666 2203.74 461.666 2192.49 461.666 2185.29 470.663 2185.29 485.845 2185.29 501.028 2192.49 510.588 2203.74 510.588 2214.98 510.588 2222.07 500.916 2222.07 485.845Z" fill="#D9D9D9" transform="matrix(1 0 0 1.00049 302 29.1996)"/><path d="M2252.32 450.869 2298.99 450.869 2298.99 462.115 2267.5 462.115 2267.5 480.56 2294.27 480.56 2294.27 491.806 2267.39 491.806 2267.39 520.484 2252.21 520.484Z" fill="#D9D9D9" transform="matrix(1 0 0 1.00049 302 29.1996)"/><path d="M2335.43 450.869 2381.77 450.869 2381.77 462.115 2350.5 462.115 2350.5 478.423 2377.16 478.423 2377.16 490.344 2350.5 490.344 2350.5 509.238 2382.89 509.238 2382.89 520.484 2335.43 520.484Z" fill="#D9D9D9" transform="matrix(1 0 0 1.00049 302 29.1996)"/><path d="M2398.3 450.869 2413.71 450.869 2435.64 488.432 2443.28 503.727 2443.28 503.727C2442.23 495.517 2441.6 487.259 2441.37 478.985L2441.37 450.869 2455.66 450.869 2455.66 521.497 2440.47 521.497 2418.88 483.596 2411.23 468.413 2411.23 468.413C2411.91 476.061 2413.03 484.946 2413.03 493.043L2413.03 521.384 2398.75 521.384Z" fill="#D9D9D9" transform="matrix(1 0 0 1.00049 302 29.1996)"/><path d="M2471.06 486.408C2470.1 467.177 2484.91 450.805 2504.14 449.839 2505.41 449.776 2506.68 449.781 2507.95 449.857 2516.65 449.676 2525.06 452.952 2531.34 458.966L2523.25 467.851C2519.27 464.017 2513.92 461.914 2508.4 462.003 2496.54 461.962 2486.89 471.548 2486.85 483.412 2486.84 484.375 2486.91 485.339 2487.03 486.295 2487.03 501.703 2494.68 510.925 2509.53 510.925 2512.92 511.097 2516.29 510.149 2519.09 508.226L2519.09 493.943 2505.7 493.943 2505.7 482.696 2532.58 482.696 2532.58 514.524C2525.71 520.231 2516.99 523.267 2508.06 523.071 2489.53 524.951 2472.98 511.447 2471.1 492.908 2470.87 490.747 2470.86 488.57 2471.06 486.408Z" fill="#D9D9D9" transform="matrix(1 0 0 1.00049 302 29.1996)"/><path d="M2548.21 450.869 2563.28 450.869 2563.28 521.497 2548.21 521.497Z" fill="#D9D9D9" transform="matrix(1 0 0 1.00049 302 29.1996)"/><path d="M2581.95 450.869 2597.92 450.869 2620.42 488.432 2627.95 503.727 2628.51 503.727C2627.46 495.517 2626.83 487.259 2626.6 478.985L2626.6 450.869 2640.88 450.869 2640.88 521.497 2625.59 521.497 2603.1 483.709 2595.45 468.526 2595.45 468.526C2596.24 476.173 2597.36 485.058 2597.36 493.156L2597.36 521.497 2583.08 521.497Z" fill="#D9D9D9" transform="matrix(1 0 0 1.00049 302 29.1996)"/><path d="M2658.54 450.869 2704.88 450.869 2704.88 462.115 2673.61 462.115 2673.61 478.423 2700.15 478.423 2700.15 490.344 2673.61 490.344 2673.61 509.238 2706 509.238 2706 520.484 2658.54 520.484Z" fill="#D9D9D9" transform="matrix(1 0 0 1.00049 302 29.1996)"/><path d="M2721.63 450.869 2767.97 450.869 2767.97 462.115 2736.7 462.115 2736.7 478.423 2763.25 478.423 2763.25 490.344 2736.7 490.344 2736.7 509.238 2769.09 509.238 2769.09 520.484 2721.63 520.484Z" fill="#D9D9D9" transform="matrix(1 0 0 1.00049 302 29.1996)"/><path d="M2825.44 521.497 2809.92 494.843 2799.35 494.843 2799.35 521.609 2784.28 521.609 2784.28 450.869 2810.59 450.869C2826.45 450.869 2839.05 456.042 2839.05 472.237 2839.45 481.511 2833.52 489.884 2824.65 492.593L2842.31 521.497ZM2799.35 483.596 2809.13 483.596C2818.92 483.596 2824.2 479.772 2824.2 472.35 2824.2 464.927 2818.92 462.115 2809.13 462.115L2799.35 462.115Z" fill="#D9D9D9" transform="matrix(1 0 0 1.00049 302 29.1996)"/><path d="M2854 450.869 2869.07 450.869 2869.07 521.497 2854 521.497Z" fill="#D9D9D9" transform="matrix(1 0 0 1.00049 302 29.1996)"/><path d="M2887.74 450.869 2903.15 450.869 2925.08 488.432 2932.73 503.727 2932.73 503.727C2931.67 495.517 2931.04 487.259 2930.82 478.985L2930.82 450.869 2945.1 450.869 2945.1 521.497 2929.81 521.497 2908.32 483.596 2900.68 468.413 2900.68 468.413C2901.35 476.061 2902.48 484.946 2902.48 493.043L2902.48 521.384 2888.19 521.384Z" fill="#D9D9D9" transform="matrix(1 0 0 1.00049 302 29.1996)"/><path d="M2960.51 486.408C2959.56 467.176 2974.37 450.816 2993.61 449.867 2994.69 449.814 2995.75 449.811 2996.83 449.857 3005.53 449.676 3013.94 452.952 3020.23 458.966L3012.13 467.851C3008.15 464.017 3002.81 461.914 2997.28 462.003 2985.42 461.962 2975.77 471.548 2975.74 483.412 2975.72 484.375 2975.79 485.339 2975.92 486.295 2975.92 501.703 2983.56 510.925 2998.41 510.925 3001.8 511.097 3005.17 510.149 3007.97 508.226L3007.97 493.943 2994.58 493.943 2994.58 482.696 3021.46 482.696 3021.46 514.524C3014.59 520.231 3005.88 523.267 2996.95 523.071 2978.38 524.638 2962.06 510.855 2960.49 492.288 2960.33 490.332 2960.33 488.363 2960.51 486.408Z" fill="#D9D9D9" transform="matrix(1 0 0 1.00049 302 29.1996)"/></g></svg>